<svg width="116" height="100" viewBox="0 0 116 100" fill="none" xmlns="http://www.w3.org/2000/svg">
<g clip-path="url(#clip0)">
<path d="M52.6038 1.01187C55.3301 0.600479 58.0873 0.315669 60.8135 0.157441C68.6825 -0.317242 76.8922 0.125796 83.9866 3.6701C90.5544 6.92959 95.6661 12.5942 99.9413 18.6068C104.248 24.6828 107.872 31.265 110.722 38.1954C112.736 43.1005 114.409 48.7017 112.457 53.6385C110.134 59.5878 103.411 62.4676 97.1531 62.9106C87.4874 63.6068 78.1004 60.0309 68.8374 57.2144C54.5865 52.8473 39.5302 50.1258 24.8767 52.5625C19.9199 53.3853 15.025 54.7777 10.0372 54.7461C7.6208 54.7144 4.98749 54.2081 3.50045 52.2777C1.64165 49.8726 2.41615 46.36 3.43849 43.4802C7.74472 31.36 15.4278 20.0942 25.3724 12.0562C33.1793 5.79035 42.8141 2.49921 52.6038 1.01187Z" fill="#E8F3F5"/>
<path d="M46.5829 25.5878C46.8617 24.0371 46.459 22.2017 45.3746 21.2523C43.7017 19.765 39.6743 19.1004 39.1786 22.0751C39.2406 21.4422 38.59 20.9359 37.9704 20.9359C37.3508 20.9359 36.7932 21.284 36.2665 21.6321C36.2665 21.6321 34.2838 20.8409 33.6642 21.1257C32.8897 21.4738 32.6728 22.4549 31.8054 22.4549C31.3097 22.4549 30.7211 21.0941 30.0705 20.7776C29.234 20.3662 28.2117 20.3346 27.3443 20.6827C26.0431 21.2207 25.1447 22.6131 25.2066 24.0371C23.2549 23.4992 21.7679 24.3852 20.3428 25.5878H46.5829ZM92.0417 18.607C91.9798 18.4488 91.8558 18.2905 91.639 18.1007C91.2362 17.7209 90.6786 17.6576 90.1519 17.5627C89.6253 17.4677 89.0676 17.3412 88.7269 16.8981C88.479 16.55 88.4171 16.1386 88.2622 15.7589C87.9214 15.0627 87.2088 14.6196 86.4343 14.5564C85.6908 14.4614 84.9163 14.7146 84.2657 15.0627C83.77 15.3158 83.3053 15.6639 82.7477 15.7589C81.9112 15.9171 81.2916 15.1893 80.6411 14.7146C80.5481 14.6513 80.4862 14.6196 80.3932 14.5564C79.3709 13.9867 78.0078 13.7019 76.8615 13.9867C75.4054 14.3348 74.3831 15.2842 73.5466 16.5184C72.989 17.3412 73.2988 17.4994 72.3694 17.7209C71.6878 17.9108 70.6965 17.4361 69.9529 17.4677C69.3024 17.4994 68.0322 17.9424 67.3816 18.6386H92.0417V18.607ZM103.411 43.1007C103.442 42.9424 103.504 42.7842 103.535 42.5943C103.814 41.2652 102.854 39.6196 101.862 38.8601C100.282 37.6893 97.8969 37.8158 96.5028 39.2083C96.317 36.3285 94.0244 33.7019 91.2362 33.1323C88.3241 32.5627 85.6598 34.2083 84.1108 36.6133C84.4516 36.107 81.1058 34.5247 79.247 33.7019C78.6583 33.4488 78.1936 33.2589 78.1007 33.2272C75.2815 32.4677 72.2455 32.5943 69.5192 33.7019C68.1871 34.2399 66.9169 34.9994 66.1114 36.2019C65.3059 37.3728 65.0271 39.05 65.7087 40.3158C64.0667 39.3665 61.9291 39.3348 60.2872 40.3158C58.5833 41.3285 57.7778 42.2779 57.6539 43.1323H103.411V43.1007Z" fill="white"/>
<mask id="mask0" mask-type="alpha" maskUnits="userSpaceOnUse" x="0" y="27" width="116" height="73">
<path d="M115.006 68.0369C118.506 49.6235 104.851 32.1705 86.4848 28.9137C76.6894 27.177 62.4834 26.5444 50.8147 38.7951C31.9536 58.5983 0 39.4712 0 68.7628C0 94.0981 47.9746 111.325 86.1369 88.6561C104.879 77.5229 112.785 79.7317 115.006 68.0369Z" fill="white"/>
</mask>
<g mask="url(#mask0)">
<path d="M115.006 68.0369C118.506 49.6235 104.851 32.1705 86.4848 28.9137C76.6894 27.177 62.4834 26.5444 50.8147 38.7951C31.9536 58.5983 0 39.4712 0 68.7628C0 94.0981 47.9746 111.325 86.1369 88.6561C104.879 77.5229 112.785 79.7317 115.006 68.0369Z" fill="white"/>
<path d="M106.252 79.7696V78.7057H105.386V77.0391H100.57V77.8901H98.2146V78.493H97.2446V74.876H93.6069V73.8121H92.2212L91.9094 73.4575H91.1472V73.8121H88.1678V80.5497H87.0939V79.9469H86.0199V72.1455H86.5396V71.7908H83.9759V70.9398C83.9759 70.9398 80.2344 70.9398 79.9226 70.9398C79.6108 70.9398 79.9226 71.7908 79.9226 71.7908H77.9825V72.1455H78.6407V77.6774H76.7007V80.3369H74.137C74.137 80.3369 74.0331 75.5497 74.137 75.5497C74.241 75.5497 73.6174 74.344 73.6174 74.344V73.032L73.2016 72.9256V72.3228L72.4395 70.8689L71.7812 71.4717V60.3015H71.123V58.493H64.2981V54.415H61.4227V66.649H61.1109V54.415H58.6512V56.5781H57.1615V71.7199H55.2214V52.0036H54.4592V48.1738H50.9255V52.0036H50.0594V58.7412H48.2579V59.4504H47.7383V63.0674H47.3226V64.1313H43.6849L43.0267 64.8405H39.3891V78.2802H36.7561V59.9823L35.9247 59.0604V58.1384L35.405 57.571H32.5642L32.0792 58.1029H27.0212V71.9327H26.1551V73.5994H25.6354V75.0533H23.5914V74.0958H21.4781V79.1313H20.4042V82.5001H20.0924V68.2093H20.4042V65.4433H14.6186V66.2944H12.055V70.6206H9.80311V70.9752H8.83308V73.9894H7.55125V77.3582H6.92766L6.408 77.9611V78.6703H4.91831V79.0249H2.87431V79.7341H0.310654V78.8121H-0.347582V63.2093H-2.59944V63.4575H-2.8073V63.2093H-5.47489V63.4575H-5.68276V63.2093H-8.35034V75.0887H-9.21645V75.5852H-9.87468V75.0887H-12.2305V70.8689H-19.5057L-19.4711 67.3937H-21.4111V94.8405L106.737 94.805V79.805H106.252V79.7696Z" fill="#CAD7DF"/>
<path d="M111.714 97.7519C94.9538 93.7962 95.6043 85.9481 66.3902 92.7835C40.6148 98.8278 46.6249 87.0557 29.7408 89.1443C22.1507 90.062 0.402677 100.568 0.216797 100.663H145.916C132.037 98.7962 121.659 100.094 111.714 97.7519Z" fill="#CAD7DF"/>
<path d="M88.1251 39.5704C88.1251 39.5704 85.4086 38.2633 83.6428 41.0116C81.9111 43.76 83.9484 48.9885 84.6276 48.888C85.3067 48.7539 89.3814 44.8325 88.8381 43.9946C88.2948 43.1567 88.1251 39.5704 88.1251 39.5704Z" fill="#222B54"/>
<path d="M85.0146 97.4231C85.1098 97.675 85.0146 98.8623 85.0146 99.0422C85.0146 99.2581 85.2367 100.158 85.1732 100.446C85.1098 100.733 84.3799 100.625 83.5866 100.697C82.7615 100.733 82.2538 100.841 82.222 100.481C82.1903 100.086 84.3164 99.582 83.8722 97.8189C83.5231 96.5236 84.9194 97.1712 85.0146 97.4231Z" fill="#183049"/>
<path d="M85.3793 97.2256C85.5568 97.0878 86.415 96.8812 86.563 97.2256C86.7109 97.57 86.563 98.4655 86.563 99.051C86.563 99.6365 86.8293 100.015 86.5038 100.291C86.1783 100.566 85.0834 100.842 84.6395 100.704C84.166 100.566 84.6395 99.6709 85.113 99.3265C85.5864 98.9477 85.3793 97.2256 85.3793 97.2256Z" fill="#183049"/>
<path d="M98.8245 39.0067C98.9116 38.4779 99.5502 36.1977 99.289 35.6359C99.0277 35.1071 98.331 37.3874 97.9246 37.0239C97.5182 36.6934 97.3441 36.429 97.1409 36.6603C97.0247 36.7925 97.8085 37.6848 97.7795 38.1805C97.7505 38.6432 97.6053 38.7093 97.7214 39.1058C97.8666 39.5024 98.8245 39.0067 98.8245 39.0067ZM80.7712 35.9114C80.7712 35.4188 80.6215 33.171 80.9807 32.74C81.34 32.3089 81.5794 34.5874 82.0884 34.3719C82.5374 34.1871 82.8068 34.0024 82.9565 34.2487C83.0463 34.4027 82.0884 35.0185 81.9986 35.4495C81.9087 35.8806 82.0884 36.0038 81.8788 36.3117C81.6693 36.6196 80.7712 35.9114 80.7712 35.9114Z" fill="#E0D1C2"/>
<path d="M80.973 69.653C81.6846 68.2135 87.8307 68.9834 88.1219 70.5233C88.413 72.0632 86.1487 96.8686 85.7281 97.2368C85.3076 97.6051 84.6606 98.1741 84.1754 97.3707C83.6902 96.5673 82.5257 84.3822 82.1698 83.5788C81.814 82.7754 80.1319 71.3602 80.973 69.653Z" fill="#4E5598"/>
<path d="M83.0822 71.1458C83.2124 69.8663 91.9674 67.9634 92.3254 69.407C93.4971 74.4267 90.4377 78.3637 90.1448 82.3006C89.8193 86.2704 87.7363 95.0959 87.0203 97.13C86.5972 98.2783 85.4581 97.6877 85.2954 96.9987C85.1001 96.3426 84.2213 85.7127 84.1562 84.1707C84.0586 82.6287 82.5289 76.9201 83.0822 71.1458Z" fill="#5C63AB"/>
<path d="M87.9061 47.4403C88.2507 47.5724 87.2169 49.8187 88.4073 50.2481C89.5664 50.6445 89.629 50.5123 89.629 50.5123C89.629 50.5123 88.282 52.5934 86.3711 52.5934C84.4602 52.5934 85.4313 51.3382 85.4313 51.3382C85.4313 51.3382 86.7783 50.5123 86.653 48.7947C86.5277 47.077 87.9061 47.4403 87.9061 47.4403Z" fill="#D3C4B5"/>
<path d="M86.9161 41.4814C87.9176 41.4814 88.0115 45.9917 88.0115 45.9917C88.0115 45.9917 88.8878 45.3662 88.8878 46.6172C88.8878 47.8683 88.0428 47.5061 88.0428 47.5061C88.0428 47.5061 87.8237 48.8889 86.2902 48.8889C84.7879 48.8889 84.4437 44.609 84.4437 43.6214C84.4124 42.6337 86.9161 41.4814 86.9161 41.4814Z" fill="#E0D1C2"/>
<path fill-rule="evenodd" clip-rule="evenodd" d="M85.0302 44.4237C85.0048 44.5143 85.0532 44.5971 85.1384 44.6086C85.2235 44.6202 85.313 44.5561 85.3385 44.4656C85.3637 44.3749 85.3153 44.2922 85.2302 44.2806C85.1452 44.2692 85.0555 44.3332 85.0302 44.4237ZM85.771 44.4237C85.7455 44.5143 85.7939 44.5971 85.879 44.6086C85.9643 44.6202 86.0538 44.5561 86.0791 44.4654C86.1046 44.3749 86.0561 44.2922 85.9711 44.2806C85.8858 44.2691 85.7962 44.3332 85.771 44.4237Z" fill="#151F35"/>
<path fill-rule="evenodd" clip-rule="evenodd" d="M85.6494 44.4443C85.6494 44.4443 85.4773 45.3595 85.1841 45.8416C85.4968 46.0341 85.9248 45.8365 85.9248 45.8365L85.6494 44.4443Z" fill="#C1B3A6"/>
<path fill-rule="evenodd" clip-rule="evenodd" d="M86.5993 47.4082L86.5864 47.4075C85.542 47.2752 85.2029 46.7491 85.1889 46.7267C85.1752 46.7047 85.1918 46.6795 85.2255 46.6707C85.2596 46.6618 85.2983 46.6723 85.312 46.6942C85.3152 46.6994 85.6404 47.1996 86.6119 47.3228C86.6478 47.3273 86.6715 47.3499 86.6643 47.3732L86.5993 47.4082ZM84.5185 43.8378C84.498 43.8378 84.4775 43.831 84.4626 43.8179C84.4348 43.7931 84.4375 43.7552 84.4683 43.7332C84.7782 43.5119 85.1144 43.5807 85.1284 43.5838C85.1684 43.5924 85.1924 43.6252 85.1814 43.6571C85.1709 43.6889 85.1304 43.7083 85.0898 43.6995C85.0786 43.6974 84.8157 43.6459 84.5687 43.8224L84.5185 43.8378Z" fill="#151F35"/>
<path fill-rule="evenodd" clip-rule="evenodd" d="M86.5909 43.8378C86.6114 43.8378 86.6319 43.831 86.6467 43.8179C86.6746 43.7931 86.6719 43.7552 86.641 43.7332C86.3312 43.5119 85.995 43.5807 85.981 43.5838C85.9409 43.5924 85.917 43.6252 85.9279 43.6571C85.9385 43.6889 85.9789 43.7083 86.0196 43.6995C86.0307 43.6974 86.2936 43.6459 86.5407 43.8224L86.5909 43.8378Z" fill="#151F35"/>
<path d="M80.8163 35.8497C80.9169 35.5516 82.5933 35.2535 82.5933 36.1809C82.5933 37.1413 82.0904 45.7852 85.6109 51.7465C89.1315 57.7078 82.7945 56.4825 81.7886 55.3895C80.8163 54.2966 78.9051 42.374 80.8163 35.8497Z" fill="#E5504D"/>
<path d="M88.217 50.5606C89.4841 50.3967 96.8589 46.594 96.9563 39.1198C96.9563 38.6936 99.198 38.1364 99.198 38.8903C99.198 40.5294 99.9777 45.4795 95.9492 52.1342C91.9207 58.7889 90.7186 56.8875 92.538 66.2631C94.3573 75.6387 80.4524 70.787 80.7448 68.984C81.0697 67.181 82.5641 62.6243 82.2067 60.264C81.8169 57.9037 79.2828 55.9696 84.6434 51.4785C85.9754 50.3639 88.217 50.5606 88.217 50.5606Z" fill="#FF5754"/>
<path d="M86.666 41.1147C86.8469 43.0022 87.2085 46.1482 87.4495 45.8832C87.7207 45.6183 88.474 46.3137 88.1125 46.7442C87.7509 47.1747 87.5098 48.102 87.4495 48.4994C87.3591 48.8967 90.1916 49.3272 90.7039 47.9364C91.2162 46.5456 91.8188 39.3595 88.5644 39.2602C86.6359 39.2271 86.666 41.1147 86.666 41.1147Z" fill="#222B54"/>
</g>
</g>
<defs>
<clipPath id="clip0">
<rect width="115.833" height="100" fill="white"/>
</clipPath>
</defs>
</svg>
