<svg width="143" height="96" viewBox="0 0 143 96" fill="none" xmlns="http://www.w3.org/2000/svg">
<path opacity="0.580892" fill-rule="evenodd" clip-rule="evenodd" d="M0.0469043 55.1402C2.05341 30.4949 109.711 -17.0732 129.697 6.27037C149.684 29.6139 144.625 78.7144 102.741 89.933C60.857 101.152 -1.9596 79.7856 0.0469043 55.1402Z" fill="#E0EFF1"/>
<path fill-rule="evenodd" clip-rule="evenodd" d="M94.0724 93.4673C93.8887 93.4673 93.7245 93.3279 93.6865 93.1255L88.1642 63.6762H78.5516L73.0294 93.1255C72.9861 93.3562 72.7792 93.5057 72.5648 93.4588C72.3515 93.4119 72.2135 93.1862 72.2571 92.9552L77.8432 63.1644C77.8807 62.9652 78.0423 62.8223 78.2297 62.8223H88.4865C88.6739 62.8223 88.8354 62.9652 88.8726 63.1644L94.4588 92.9555C94.5021 93.1862 94.3644 93.4119 94.1511 93.4588C94.1247 93.4645 94.0982 93.4673 94.0724 93.4673" fill="#B4BEC8"/>
<path fill-rule="evenodd" clip-rule="evenodd" d="M74.9056 93.4673C74.7157 93.4673 74.5458 93.3279 74.5065 93.1255L68.7939 63.6762H58.8499L53.1373 93.1255C53.0926 93.3562 52.8785 93.5057 52.6567 93.4588C52.4361 93.4119 52.2933 93.1862 52.3384 92.9552L58.1171 63.1644C58.1559 62.9652 58.323 62.8223 58.5169 62.8223H69.1269C69.3208 62.8223 69.4879 62.9652 69.5264 63.1641L75.3057 92.9552C75.3505 93.1862 75.208 93.4119 74.9871 93.4588C74.9597 93.4645 74.9324 93.4673 74.9056 93.4673" fill="#B4BEC8"/>
<path fill-rule="evenodd" clip-rule="evenodd" d="M80.3179 63.4296H58.3507C54.1569 63.4296 50.7333 60.0751 50.6481 55.882L49.8293 22.4964C49.765 19.3532 52.2957 16.7705 55.4395 16.7705H69.2106C72.0639 16.7705 74.4627 18.9117 74.7861 21.7466L80.3179 63.4296Z" fill="#B4BEC8"/>
<path d="M77.6899 7.20449L78.4429 15.1677C78.4636 15.3897 78.2844 15.5743 78.0711 15.5507L76.1008 15.3327L75.2912 17.6191L71.1827 15.975L67.9951 6.96484L77.6899 7.20449Z" fill="#E0D1C2"/>
<path fill-rule="evenodd" clip-rule="evenodd" d="M75.7985 12.6508C75.7336 12.8755 75.857 13.0805 76.0742 13.1092C76.2909 13.1379 76.5189 12.9789 76.5838 12.7546C76.6481 12.53 76.5248 12.3249 76.3081 12.2962C76.0914 12.2679 75.8629 12.4265 75.7985 12.6508" fill="#151F35"/>
<path d="M68.8503 17.2149C68.8503 17.2149 67.6484 24.4069 66.7666 25.2001C66.7666 25.2001 74.1985 25.0503 74.8324 24.8928C74.8324 24.8928 73.9966 21.0878 73.9274 20.3257C73.8602 19.5635 68.6601 11.2676 68.6601 11.2676C68.6601 11.2676 65.9189 11.6175 65.7537 11.7925C65.5885 11.9675 67.2521 15.1288 67.2521 15.1288L68.8503 17.2149Z" fill="#E0D1C2"/>
<path fill-rule="evenodd" clip-rule="evenodd" d="M80.4867 12.46C80.4153 11.4052 79.8405 10.6132 79.175 10.657C78.6079 10.6932 78.1874 11.3291 78.1218 12.1706C77.9482 12.1192 77.7013 12.0906 77.4255 12.1839C77.2538 11.3367 76.7446 10.7465 76.1698 10.7827C75.8399 10.8036 75.5506 11.0283 75.3519 11.4147C75.213 11.687 75.1301 12.0183 75.1108 12.3743L68.6219 12.1039L68.6104 12.361L75.1108 12.6332C75.1118 12.6523 75.1113 12.671 75.1108 12.6894C75.1103 12.7076 75.1098 12.7256 75.1108 12.7436C75.1436 13.2348 75.2921 13.6898 75.5255 14.0268C75.7743 14.3829 76.0926 14.5675 76.4205 14.5466C76.4784 14.5428 76.5363 14.5333 76.5903 14.5161C77.1612 14.3505 77.5412 13.549 77.4776 12.5875L77.4776 12.5874C77.4737 12.5398 77.4698 12.4923 77.4641 12.4447C77.6762 12.3724 77.927 12.4066 78.1103 12.4523C78.1103 12.5056 78.1122 12.5609 78.116 12.6142C78.1488 13.1054 78.2974 13.5604 78.5308 13.8974C78.7796 14.2534 79.0979 14.4381 79.4258 14.4171C79.4836 14.4133 79.5415 14.4038 79.5955 14.3867C80.1703 14.2229 80.5523 13.4233 80.4867 12.46ZM76.4071 14.2905C76.1738 14.3058 75.9365 14.1611 75.7436 13.8812C75.5353 13.5823 75.4041 13.1711 75.3733 12.7256C75.3424 12.2801 75.4176 11.8555 75.5854 11.5319C75.7147 11.2786 75.8863 11.1149 76.0773 11.0597C76.114 11.0483 76.1506 11.0426 76.1892 11.0407C76.6907 11.0083 77.1633 11.7241 77.2231 12.6056C77.2809 13.4852 76.9087 14.2563 76.4071 14.2905ZM78.7489 13.754C78.9418 14.0339 79.179 14.1786 79.4124 14.1634C79.914 14.1291 80.2862 13.358 80.2284 12.4784C80.1686 11.597 79.696 10.8811 79.1945 10.9135C79.1578 10.9154 79.1212 10.923 79.0845 10.9325C78.6775 11.0506 78.3785 11.6693 78.3747 12.4004V12.4823C78.3747 12.5186 78.3764 12.5549 78.3783 12.5929L78.3785 12.5984C78.4094 13.0439 78.5406 13.4551 78.7489 13.754Z" fill="#191847"/>
<path d="M79.9807 2.61539C79.8364 2.25018 79.4148 2.09559 79.0692 2.27337C78.4425 2.59799 77.2936 2.98639 75.6908 2.68495C74.7849 2.51491 71.7256 1.20866 68.9283 2.23086C67.9485 2.58833 67.204 3.98539 67.2876 4.77184C67.2876 4.77184 62.8401 5.37086 64.4561 11.3282C64.4599 11.3398 64.4618 11.3533 64.4637 11.3649C64.4656 11.3688 64.4656 11.3746 64.4675 11.3784V11.3784C65.3107 15.0846 68.6777 17.2894 68.6777 17.2894C68.7669 16.9628 68.7555 16.3618 68.7309 15.9367C68.7176 15.7068 68.5637 15.5194 68.3491 15.444C67.3655 15.0981 65.5082 12.5455 67.2002 11.9832C69.1221 11.3436 68.8999 15.1 71.0211 18.7309C72.7815 21.7453 76.551 20.953 77.7854 20.2516C79.8041 19.1077 77.8614 15.3899 77.8614 15.3899C77.8614 15.3899 76.8587 15.2759 76.1048 15.2005C76.0193 15.1928 75.9396 15.1909 75.8655 15.1947C75.4325 15.2179 75.0603 15.5136 74.8989 15.9232L74.7982 16.1802C74.6957 16.4391 74.4222 16.5802 74.1583 16.5087C73.412 16.3077 71.9649 15.8575 71.3496 15.2295C70.7286 14.5938 69.8228 12.0103 69.386 10.6828C69.2455 10.2538 69.2208 9.78619 69.3594 9.35529C69.5322 8.81231 69.9671 8.27319 71.0439 8.5012C73.0302 8.92245 78.5032 9.52146 80.0491 5.87133C80.4839 4.41243 80.2446 3.2859 79.9807 2.61539Z" fill="#191847"/>
<path opacity="0.2" d="M67.9951 11.8828C67.9951 11.8828 68.9164 12.1232 69.6624 14.2102C70.3909 16.2444 71.8211 19.7247 75.3232 19.8244C75.5565 19.8302 75.7897 19.8146 76.0229 19.7892C76.7226 19.7169 78.1142 19.5137 78.8543 18.9939V18.9939C78.7502 19.5059 78.49 19.9553 77.9792 20.2445C76.7264 20.9519 72.8985 21.7551 71.1137 18.7066C69.2904 15.5976 69.1728 12.3987 67.9951 11.8828V11.8828Z" fill="#004469"/>
<path fill-rule="evenodd" clip-rule="evenodd" d="M86.1536 89.3905L88.7822 89.1127C89.6347 90.3218 90.1424 90.7099 91.6585 91.3786C93.3187 92.1179 94.0379 92.2402 94.8106 93.4955C94.2651 94.1718 94.7301 94.188 92.9228 94.185L86.9997 94.495C86.3987 92.732 85.9195 90.6737 86.1536 89.3905" fill="#191847"/>
<path fill-rule="evenodd" clip-rule="evenodd" d="M97.7239 86.6742C99.4387 91.4827 100.689 89.8811 103.208 93.5336C101.98 94.1773 103.078 94.5182 99.8832 93.2972C98.3477 92.6985 97.5758 92.261 96.1079 92.1075C94.6989 90.0832 96.1304 88.5557 95.6943 86.5474C97.0851 87.0248 96.2605 86.6436 97.7239 86.6742" fill="#191847"/>
<path fill-rule="evenodd" clip-rule="evenodd" d="M88.8292 89.0178L86.141 89.3034C85.9293 87.3061 85.5868 85.2531 86.134 83.7328C86.791 83.8578 86.8358 83.8888 87.4793 84.0769C88.3291 84.3095 88.9336 84.1333 88.9755 85.1084L88.8292 89.0178Z" fill="#EECAAD"/>
<path fill-rule="evenodd" clip-rule="evenodd" d="M80.6988 43.3331C78.3928 43.5469 67.1173 45.7634 64.3076 45.6886L71.5878 42.7904C74.2969 42.059 78.2666 40.7918 80.6988 40.3633L80.139 42.6728C80.4671 43.2649 79.1282 43.3638 80.1109 43.4014L80.6988 43.3331Z" fill="#383F80"/>
<path fill-rule="evenodd" clip-rule="evenodd" d="M96.9155 84.518L97.5983 86.7166C96.1389 86.6646 96.9665 87.061 95.5727 86.5595L94.624 84.0258C95.851 83.5506 95.753 84.1557 96.9155 84.518" fill="#EECAAD"/>
<path d="M97.7248 84.5588L95.4506 55.8935L94.3631 49.0199L90.521 45.6581L78.9948 43.2568L72.2713 44.2173C71.7029 44.4287 69.4776 44.9815 68.9096 45.1779C67.4934 45.693 71.4117 57.655 69.7441 57.655C68.2779 57.6397 81.9994 58.199 81.9994 58.199L86.3212 58.2296C86.3212 58.2296 85.6169 60.8313 86.3212 64.8683C87.1592 69.6709 93.1244 83.1403 93.8827 84.0785C94.4268 84.3206 97.1306 84.2558 97.7248 84.5588Z" fill="#383F80"/>
<path fill-rule="evenodd" clip-rule="evenodd" d="M87.6982 57.5331L89.9724 86.1985C89.3783 85.8955 86.6744 85.9603 86.1304 85.7182C85.372 84.78 80.5991 71.1119 79.7612 66.3094C79.0568 62.2724 79.7612 59.8387 79.7612 59.8387L79.7612 58.145C79.7612 58.145 67.7548 58.145 66.3141 56.224C64.8733 54.303 61.0312 45.6584 61.0312 45.6584C61.5993 45.462 64.3049 46.35 64.8733 46.1387L68.7153 45.1782C68.7153 45.1782 86.4848 43.2572 87.4453 51.4215C87.8381 54.7602 87.6982 57.5331 87.6982 57.5331Z" fill="#5C63AB"/>
<path fill-rule="evenodd" clip-rule="evenodd" d="M84.387 53.7161C84.387 53.7161 71.4404 57.8276 69.7687 57.7787C66.8216 57.6913 63.1626 54.884 62.1114 53.2013C60.4889 50.6026 60.9956 48.8827 60.21 45.9704L64.5454 45.8955C64.5705 45.9704 64.6334 46.021 64.6466 46.134L64.8742 46.7233C64.9125 47.2007 66.407 46.662 66.1411 47.4024L69.9509 48.0781C69.9642 48.0906 71.2855 48.0573 71.4753 48.1325C72.2739 48.4207 75.3089 48.6893 76.1835 48.7271C77.464 50.6605 76.1891 49.4024 78.3062 50.1058L79.9664 51.4304C77.7478 51.4676 79.9402 50.4033 79.6862 51.2069L84.387 53.7161Z" fill="#5C63AB"/>
<path fill-rule="evenodd" clip-rule="evenodd" d="M90.2553 46.0759C85.8376 46.5408 82.5301 46.5734 78.7354 46.8633C77.779 46.9358 78.1567 46.5926 78.1449 46.1132L78.8545 40.7724C83.2486 38.4473 82.5567 43.4329 83.5037 37.7524L80.0921 37.6203L80.5219 35.1648L81.3132 28.9912L93.3454 29.5034L90.2553 46.0759Z" fill="#DEE2E7"/>
<path fill-rule="evenodd" clip-rule="evenodd" d="M90.3089 45.4028C85.8501 45.8675 84.771 45.8059 80.9405 46.0957C79.9752 46.1681 79.6184 45.956 79.6074 45.4763L80.2887 39.7598C83.0477 38.0148 82.2737 42.4156 83.3507 37.1872H81.7229L82.9962 30.082L93.3453 30.3165L90.3089 45.4028Z" fill="white"/>
<path opacity="0.444173" d="M84.2028 31.7938L84.1484 32.1715L84.2028 31.7938ZM83.8251 31.7394L83.8795 31.3617L83.5018 31.3073L83.4474 31.685L83.8251 31.7394ZM90.6424 32.7209L90.5881 33.0986L90.6424 32.7209ZM91.0202 32.7753L91.3979 32.8297L91.4523 32.452L91.0745 32.3976L91.0202 32.7753ZM90.9114 33.5307L90.857 33.9084L91.2347 33.9628L91.2891 33.5851L90.9114 33.5307ZM90.5337 33.4763L90.5881 33.0986L90.5881 33.0986L90.5337 33.4763ZM84.0941 32.5492L84.0397 32.9269L84.0397 32.9269L84.0941 32.5492ZM83.7163 32.4948L83.3386 32.4404L83.2843 32.8182L83.662 32.8725L83.7163 32.4948ZM83.6655 33.2567L83.7198 32.879L83.3421 32.8246L83.2878 33.2023L83.6655 33.2567ZM84.0432 33.3111L83.9888 33.6888L83.9888 33.6888L84.0432 33.3111ZM83.5567 34.0121L83.179 33.9577L83.1246 34.3355L83.5023 34.3898L83.5567 34.0121ZM83.9344 34.0665L83.88 34.4442L83.88 34.4442L83.9344 34.0665ZM90.374 34.9936L90.4284 34.6159L90.4284 34.6159L90.374 34.9936ZM90.7518 35.048L90.6974 35.4257L91.0751 35.4801L91.1295 35.1024L90.7518 35.048ZM90.8605 34.2926L91.2382 34.347L91.2926 33.9693L90.9149 33.9149L90.8605 34.2926ZM90.4828 34.2382L90.4284 34.6159L90.4284 34.6159L90.4828 34.2382ZM83.3465 36.2935L83.4008 35.9158L83.0231 35.8614L82.9687 36.2391L83.3465 36.2935ZM83.7242 36.3479L83.7786 35.9702L83.7786 35.9702L83.7242 36.3479ZM83.2377 37.049L82.86 36.9946L82.8056 37.3723L83.1833 37.4267L83.2377 37.049ZM83.6154 37.1033L83.6698 36.7256L83.6698 36.7256L83.6154 37.1033ZM90.055 38.0305L90.1094 37.6528L90.1094 37.6528L90.055 38.0305ZM90.4328 38.0848L90.3784 38.4626L90.7561 38.5169L90.8105 38.1392L90.4328 38.0848ZM90.5415 37.3294L90.9192 37.3838L90.9736 37.0061L90.5959 36.9517L90.5415 37.3294ZM90.1638 37.275L90.1094 37.6528L90.1094 37.6528L90.1638 37.275ZM83.0273 39.3296L83.0817 38.9519L82.7039 38.8975L82.6496 39.2752L83.0273 39.3296ZM83.405 39.384L83.4594 39.0063L83.4594 39.0063L83.405 39.384ZM82.9185 40.085L82.5408 40.0307L82.4864 40.4084L82.8641 40.4628L82.9185 40.085ZM83.2962 40.1394L83.3506 39.7617L83.3506 39.7617L83.2962 40.1394ZM89.7359 41.0666L89.6815 41.4443L89.6815 41.4443L89.7359 41.0666ZM90.1136 41.1209L90.0592 41.4986L90.4369 41.553L90.4913 41.1753L90.1136 41.1209ZM90.2223 40.3655L90.6 40.4199L90.6544 40.0422L90.2767 39.9878L90.2223 40.3655ZM89.8446 40.3111L89.7902 40.6888L89.7902 40.6888L89.8446 40.3111ZM83.2454 40.9013L83.2998 40.5236L83.2998 40.5236L83.2454 40.9013ZM82.8677 40.8469L82.9221 40.4692L82.5444 40.4148L82.49 40.7925L82.8677 40.8469ZM89.6851 41.8284L89.6307 42.2061L89.6307 42.2061L89.6851 41.8284ZM90.0628 41.8828L90.4405 41.9372L90.4949 41.5595L90.1172 41.5051L90.0628 41.8828ZM89.954 42.6382L89.8996 43.0159L90.2774 43.0703L90.3317 42.6926L89.954 42.6382ZM89.5763 42.5838L89.5219 42.9616L89.5219 42.9616L89.5763 42.5838ZM83.1367 41.6567L83.0823 42.0344L83.0823 42.0344L83.1367 41.6567ZM82.759 41.6023L82.3813 41.548L82.3269 41.9257L82.7046 41.98L82.759 41.6023ZM82.7082 42.3649L82.7626 41.9872L82.3848 41.9329L82.3305 42.3106L82.7082 42.3649ZM83.0859 42.4193L83.1403 42.0416L83.1403 42.0416L83.0859 42.4193ZM82.5994 43.1204L82.2217 43.066L82.1673 43.4437L82.545 43.4981L82.5994 43.1204ZM82.9771 43.1748L82.9227 43.5525L82.9227 43.5525L82.9771 43.1748ZM89.4168 44.1019L89.3624 44.4796L89.3624 44.4796L89.4168 44.1019ZM89.7945 44.1563L89.7401 44.534L90.1178 44.5884L90.1722 44.2107L89.7945 44.1563ZM89.9032 43.4008L90.2809 43.4552L90.3353 43.0775L89.9576 43.0231L89.9032 43.4008ZM89.5255 43.3465L89.4711 43.7242L89.4711 43.7242L89.5255 43.3465ZM83.5646 37.8659L83.619 37.4882L83.619 37.4882L83.5646 37.8659ZM83.1869 37.8116L83.2413 37.4339L82.8636 37.3795L82.8092 37.7572L83.1869 37.8116ZM90.0043 38.7931L89.9499 39.1708L89.9499 39.1708L90.0043 38.7931ZM90.382 38.8475L90.7597 38.9018L90.8141 38.5241L90.4363 38.4698L90.382 38.8475ZM90.2732 39.6029L90.2188 39.9806L90.5965 40.035L90.6509 39.6573L90.2732 39.6029ZM89.8955 39.5485L89.9499 39.1708L89.9499 39.1708L89.8955 39.5485ZM83.4559 38.6214L83.5102 38.2437L83.5102 38.2437L83.4559 38.6214ZM83.0782 38.567L82.7004 38.5126L82.6461 38.8903L83.0238 38.9447L83.0782 38.567ZM83.506 34.7747L83.5604 34.397L83.1827 34.3426L83.1283 34.7204L83.506 34.7747ZM83.8837 34.8291L83.8293 35.2068L83.8293 35.2068L83.8837 34.8291ZM83.3972 35.5302L83.0195 35.4758L82.9652 35.8535L83.3429 35.9079L83.3972 35.5302ZM83.775 35.5845L83.7206 35.9623L83.7206 35.9623L83.775 35.5845ZM90.2146 36.5117L90.269 36.134L90.269 36.134L90.2146 36.5117ZM90.5923 36.5661L90.5379 36.9438L90.9156 36.9982L90.97 36.6204L90.5923 36.5661ZM90.7011 35.8106L91.0788 35.865L91.1332 35.4873L90.7554 35.4329L90.7011 35.8106ZM90.3234 35.7563L90.3777 35.3785L90.3777 35.3785L90.3234 35.7563ZM84.2572 31.4161L83.8795 31.3617L83.7707 32.1171L84.1484 32.1715L84.2572 31.4161ZM90.6968 32.3432L84.2572 31.4161L84.1484 32.1715L90.5881 33.0986L90.6968 32.3432ZM91.0745 32.3976L90.6968 32.3432L90.5881 33.0986L90.9658 33.153L91.0745 32.3976ZM91.2891 33.5851L91.3979 32.8297L90.6424 32.7209L90.5337 33.4763L91.2891 33.5851ZM90.4793 33.8541L90.857 33.9084L90.9658 33.153L90.5881 33.0986L90.4793 33.8541ZM84.0397 32.9269L90.4793 33.8541L90.5881 33.0986L84.1484 32.1715L84.0397 32.9269ZM83.662 32.8725L84.0397 32.9269L84.1484 32.1715L83.7707 32.1171L83.662 32.8725ZM83.4474 31.685L83.3386 32.4404L84.0941 32.5492L84.2028 31.7938L83.4474 31.685ZM83.6111 33.6344L83.9888 33.6888L84.0976 32.9334L83.7198 32.879L83.6111 33.6344ZM83.9344 34.0665L84.0432 33.3111L83.2878 33.2023L83.179 33.9577L83.9344 34.0665ZM83.9888 33.6888L83.6111 33.6344L83.5023 34.3898L83.88 34.4442L83.9888 33.6888ZM90.4284 34.6159L83.9888 33.6888L83.88 34.4442L90.3197 35.3713L90.4284 34.6159ZM90.8061 34.6703L90.4284 34.6159L90.3197 35.3713L90.6974 35.4257L90.8061 34.6703ZM90.4828 34.2382L90.374 34.9936L91.1295 35.1024L91.2382 34.347L90.4828 34.2382ZM90.4284 34.6159L90.8061 34.6703L90.9149 33.9149L90.5372 33.8605L90.4284 34.6159ZM83.9888 33.6888L90.4284 34.6159L90.5372 33.8605L84.0976 32.9334L83.9888 33.6888ZM83.2921 36.6712L83.6698 36.7256L83.7786 35.9702L83.4008 35.9158L83.2921 36.6712ZM83.6154 37.1033L83.7242 36.3479L82.9687 36.2391L82.86 36.9946L83.6154 37.1033ZM83.6698 36.7256L83.2921 36.6712L83.1833 37.4267L83.561 37.481L83.6698 36.7256ZM90.1094 37.6528L83.6698 36.7256L83.561 37.481L90.0007 38.4082L90.1094 37.6528ZM90.4871 37.7071L90.1094 37.6528L90.0007 38.4082L90.3784 38.4626L90.4871 37.7071ZM90.1638 37.275L90.055 38.0305L90.8105 38.1392L90.9192 37.3838L90.1638 37.275ZM90.1094 37.6528L90.4871 37.7071L90.5959 36.9517L90.2182 36.8973L90.1094 37.6528ZM83.6698 36.7256L90.1094 37.6528L90.2182 36.8973L83.7786 35.9702L83.6698 36.7256ZM82.9729 39.7073L83.3506 39.7617L83.4594 39.0063L83.0817 38.9519L82.9729 39.7073ZM83.2962 40.1394L83.405 39.384L82.6496 39.2752L82.5408 40.0307L83.2962 40.1394ZM83.3506 39.7617L82.9729 39.7073L82.8641 40.4628L83.2418 40.5171L83.3506 39.7617ZM89.7902 40.6888L83.3506 39.7617L83.2418 40.5171L89.6815 41.4443L89.7902 40.6888ZM90.1679 40.7432L89.7902 40.6888L89.6815 41.4443L90.0592 41.4986L90.1679 40.7432ZM89.8446 40.3111L89.7359 41.0666L90.4913 41.1753L90.6 40.4199L89.8446 40.3111ZM89.7902 40.6888L90.1679 40.7432L90.2767 39.9878L89.899 39.9334L89.7902 40.6888ZM83.3506 39.7617L89.7902 40.6888L89.899 39.9334L83.4594 39.0063L83.3506 39.7617ZM83.2998 40.5236L82.9221 40.4692L82.8133 41.2246L83.1911 41.279L83.2998 40.5236ZM89.7394 41.4507L83.2998 40.5236L83.1911 41.279L89.6307 42.2061L89.7394 41.4507ZM90.1172 41.5051L89.7394 41.4507L89.6307 42.2061L90.0084 42.2605L90.1172 41.5051ZM90.3317 42.6926L90.4405 41.9372L89.6851 41.8284L89.5763 42.5838L90.3317 42.6926ZM89.5219 42.9616L89.8996 43.0159L90.0084 42.2605L89.6307 42.2061L89.5219 42.9616ZM83.0823 42.0344L89.5219 42.9616L89.6307 42.2061L83.1911 41.279L83.0823 42.0344ZM82.7046 41.98L83.0823 42.0344L83.1911 41.279L82.8133 41.2246L82.7046 41.98ZM82.49 40.7925L82.3813 41.548L83.1367 41.6567L83.2454 40.9013L82.49 40.7925ZM82.6538 42.7427L83.0315 42.797L83.1403 42.0416L82.7626 41.9872L82.6538 42.7427ZM82.9771 43.1748L83.0859 42.4193L82.3305 42.3106L82.2217 43.066L82.9771 43.1748ZM83.0315 42.797L82.6538 42.7427L82.545 43.4981L82.9227 43.5525L83.0315 42.797ZM89.4711 43.7242L83.0315 42.797L82.9227 43.5525L89.3624 44.4796L89.4711 43.7242ZM89.8489 43.7786L89.4711 43.7242L89.3624 44.4796L89.7401 44.534L89.8489 43.7786ZM89.5255 43.3465L89.4168 44.1019L90.1722 44.2107L90.2809 43.4552L89.5255 43.3465ZM89.4711 43.7242L89.8489 43.7786L89.9576 43.0231L89.5799 42.9688L89.4711 43.7242ZM83.0315 42.797L89.4711 43.7242L89.5799 42.9688L83.1403 42.0416L83.0315 42.797ZM83.619 37.4882L83.2413 37.4339L83.1325 38.1893L83.5102 38.2437L83.619 37.4882ZM90.0586 38.4154L83.619 37.4882L83.5102 38.2437L89.9499 39.1708L90.0586 38.4154ZM90.4363 38.4698L90.0586 38.4154L89.9499 39.1708L90.3276 39.2252L90.4363 38.4698ZM90.6509 39.6573L90.7597 38.9018L90.0043 38.7931L89.8955 39.5485L90.6509 39.6573ZM89.8411 39.9262L90.2188 39.9806L90.3276 39.2252L89.9499 39.1708L89.8411 39.9262ZM83.4015 38.9991L89.8411 39.9262L89.9499 39.1708L83.5102 38.2437L83.4015 38.9991ZM83.0238 38.9447L83.4015 38.9991L83.5102 38.2437L83.1325 38.1893L83.0238 38.9447ZM82.8092 37.7572L82.7004 38.5126L83.4559 38.6214L83.5646 37.8659L82.8092 37.7572ZM83.4516 35.1524L83.8293 35.2068L83.9381 34.4514L83.5604 34.397L83.4516 35.1524ZM83.775 35.5845L83.8837 34.8291L83.1283 34.7204L83.0195 35.4758L83.775 35.5845ZM83.8293 35.2068L83.4516 35.1524L83.3429 35.9079L83.7206 35.9623L83.8293 35.2068ZM90.269 36.134L83.8293 35.2068L83.7206 35.9623L90.1602 36.8894L90.269 36.134ZM90.6467 36.1883L90.269 36.134L90.1602 36.8894L90.5379 36.9438L90.6467 36.1883ZM90.3234 35.7563L90.2146 36.5117L90.97 36.6204L91.0788 35.865L90.3234 35.7563ZM90.269 36.134L90.6467 36.1883L90.7554 35.4329L90.3777 35.3785L90.269 36.134ZM83.8293 35.2068L90.269 36.134L90.3777 35.3785L83.9381 34.4514L83.8293 35.2068Z" fill="#B4BEC8"/>
<path fill-rule="evenodd" clip-rule="evenodd" d="M68.082 21.6879C68.082 21.6879 70.7003 23.8558 70.7448 24.0727L70.0898 25.431C71.4541 25.7827 70.9986 26.7002 70.9861 28.2444C70.9861 29.539 71.0119 30.8067 70.9861 32.1259C70.9361 34.7135 71.2643 37.427 70.797 39.9644C69.5971 40.391 65.7076 40.9308 64.2679 40.7296C64.4324 38.6068 65.5564 35.5671 65.3287 33.3572L59.0902 33.2941C58.7617 30.3922 59.1782 26.7751 60.2393 24.4764C61.5521 21.6127 64.538 20.758 68.1622 21.2228L68.082 21.6879Z" fill="white"/>
<path fill-rule="evenodd" clip-rule="evenodd" d="M81.713 33.7999C81.8019 32.1778 81.2954 25.8019 80.8399 24.4441C79.9281 21.7273 75.5381 21.7148 72.5629 21.5137L72.1677 23.7898L72.4204 24.9969C71.496 26.1287 71.7372 26.7202 71.7494 28.5181C71.7494 31.3224 71.5215 37.661 71.9139 39.7489C73.6867 39.3832 75.3199 39.0064 77.0801 38.6793C79.2062 38.2768 78.9274 37.145 80.2818 35.6989C80.2818 35.6989 80.5614 36.1146 81.2578 35.611L81.713 33.7999Z" fill="white"/>
<path fill-rule="evenodd" clip-rule="evenodd" d="M71.9888 39.8139L70.7663 39.9539C71.2419 37.3989 70.9081 34.6675 70.9591 32.0626C70.9853 30.7346 70.9591 29.458 70.9591 28.1552C70.9722 26.6006 71.436 25.6769 70.0449 25.3229L70.0711 23.9195L70.676 23.8936L71.2688 24.8679C71.6674 24.1723 71.5253 24.3116 72.2467 23.7676L72.5036 24.9813C71.5639 26.1194 71.8091 26.714 71.8215 28.5218C71.8215 31.3415 71.5898 37.7149 71.9888 39.8139" fill="#DDDDDD"/>
<path fill-rule="evenodd" clip-rule="evenodd" d="M90.9898 36.4304C91.1623 36.2195 91.9095 36.2242 92.1468 36.3701C93.3062 37.085 92.0704 39.7177 91.1728 40.3546C90.9847 40.488 90.2534 39.0826 90.1693 38.3637C90.083 37.6342 90.5658 36.9473 90.9898 36.4304" fill="#E0D1C2"/>
<path fill-rule="evenodd" clip-rule="evenodd" d="M77.0745 38.7017C79.1997 38.2963 78.9211 37.1564 80.2747 35.6999L81.2501 35.6114L80.9456 37.2704L83.3624 37.3596C82.6916 41.1974 82.996 39.2086 79.8832 40.7794C77.4406 41.21 64.7163 48.0467 60.0813 45.8833C59.3204 45.5283 58.9805 33.1924 58.9805 33.1924L65.2312 33.2557C65.459 35.4844 64.3332 38.5496 64.168 40.6902C65.6109 40.8931 75.3157 39.0312 77.0745 38.7017" fill="#E0D1C2"/>
<path fill-rule="evenodd" clip-rule="evenodd" d="M113.598 11.4394C113.586 11.4394 113.573 11.4362 113.562 11.4293C113.527 11.4084 110.06 9.34668 108.958 9.34668C107.856 9.34668 104.549 11.4078 104.516 11.4285C104.483 11.4497 104.439 11.4394 104.417 11.4058C104.396 11.3722 104.406 11.3277 104.44 11.3067C104.577 11.2209 107.815 9.20312 108.958 9.20312C110.099 9.20312 113.491 11.22 113.635 11.3059C113.669 11.3263 113.68 11.3705 113.66 11.4043C113.647 11.427 113.623 11.4394 113.598 11.4394" fill="#DDE3E9"/>
<path fill-rule="evenodd" clip-rule="evenodd" d="M101.834 26.8996H117V10.7773H101.834V26.8996Z" fill="#B4BEC8"/>
<path fill-rule="evenodd" clip-rule="evenodd" d="M103.104 25.63H115.729V12.0488H103.104V25.63Z" fill="white"/>
<path fill-rule="evenodd" clip-rule="evenodd" d="M111.257 16.2001C111.257 17.4688 110.228 18.497 108.96 18.497C107.691 18.497 106.663 17.4688 106.663 16.2001C106.663 14.9317 107.691 13.9033 108.96 13.9033C110.228 13.9033 111.257 14.9317 111.257 16.2001" fill="#DDE3E9"/>
<rect x="104.222" y="20.0752" width="10.3357" height="0.287103" fill="#D8D8D8" stroke="#DDE3E9" stroke-width="0.287103"/>
<rect x="104.222" y="21.5107" width="10.3357" height="0.287103" fill="#D8D8D8" stroke="#DDE3E9" stroke-width="0.287103"/>
<rect x="104.222" y="23.2334" width="10.3357" height="0.287103" fill="#D8D8D8" stroke="#DDE3E9" stroke-width="0.287103"/>
<path d="M17.0889 44.4355H133.54V45.9678C133.54 46.814 132.854 47.5001 132.008 47.5001H18.6211C17.7749 47.5001 17.0889 46.814 17.0889 45.9678V44.4355Z" fill="#DDE3E9"/>
<path d="M18.6211 47.5H132.008V49.0323C132.008 49.8785 131.322 50.5645 130.476 50.5645H20.1534C19.3071 50.5645 18.6211 49.8785 18.6211 49.0323V47.5Z" fill="#C8D2DD"/>
<rect x="20.9199" y="50.5645" width="32.9436" height="45.2016" fill="#DDE3E9"/>
<rect x="96.7666" y="50.5645" width="32.9436" height="45.2016" fill="#DDE3E9"/>
<path d="M24.75 31.0281C24.75 29.5472 25.9505 28.3467 27.4315 28.3467V28.3467C28.9124 28.3467 30.1129 29.5472 30.1129 31.0281V34.4757H24.75V31.0281Z" fill="#A9D4DC"/>
<rect x="27.0488" y="28.3467" width="14.5565" height="6.12903" fill="#A9D4DC"/>
<path d="M38.54 31.0281C38.54 29.5472 39.7406 28.3467 41.2215 28.3467V28.3467C42.7024 28.3467 43.9029 29.5472 43.9029 31.0281V34.4757H38.54V31.0281Z" fill="#8FBAC2"/>
<path d="M28.5811 44.4351C28.5811 43.1657 29.6101 42.1367 30.8794 42.1367H37.7746C39.044 42.1367 40.073 43.1657 40.073 44.4351V44.4351H28.5811V44.4351Z" fill="#DDD2B7"/>
<rect x="33.9434" y="34.4756" width="0.766129" height="7.66129" fill="#D0C5A9"/>
<circle cx="37.3909" cy="34.8587" r="0.383065" fill="#E3D2A7"/>
<circle cx="37.3909" cy="35.6253" r="0.383065" fill="#E3D2A7"/>
<circle cx="37.3909" cy="36.3909" r="0.383065" fill="#E3D2A7"/>
<circle cx="37.3909" cy="37.1575" r="0.383065" fill="#E3D2A7"/>
<circle cx="37.3909" cy="37.9231" r="0.383065" fill="#E3D2A7"/>
<path d="M78.3794 29.8797C77.2302 25.666 77.2302 24.1337 75.3149 22.2183C73.3996 20.303 69.1859 21.0692 68.0367 22.2184C66.8875 23.3676 66.8875 26.8152 68.0367 31.0289" stroke="black" stroke-width="0.766129"/>
<path d="M66.9639 32.9434C67.3469 34.4756 67.73 36.3909 73.476 38.3063" stroke="#B1B5BC" stroke-width="0.766129" stroke-linecap="round"/>
<path d="M70.335 32.1777C70.718 33.3269 71.4842 33.71 69.5401 39.8089" stroke="#B1B5BC" stroke-width="0.766129" stroke-linecap="round"/>
<path d="M70.7174 33.357C70.3245 32.0628 70.3245 31.5921 69.6697 31.0038C69.0149 30.4155 67.5743 30.6509 67.1814 31.0038C66.7885 31.3568 66.7885 32.4158 67.1814 33.71" stroke="black" stroke-width="0.766129"/>
<g style="mix-blend-mode:lighten">
<path d="M67.8389 26.2436C68.724 25.4474 69.9516 18.0039 69.9516 18.0039L70.7177 18.77C70.7177 18.77 72.25 20.6854 75.027 21.3506C75.0964 22.1156 75.9354 25.9351 75.9354 25.9351C75.2991 26.0932 67.8389 26.2436 67.8389 26.2436Z" fill="#E0D1C2"/>
</g>
<circle cx="78.3787" cy="30.2615" r="1.14919" fill="#B1B5BC"/>
<circle cx="78.6853" cy="30.1082" r="1.14919" fill="#C4C4C4"/>
</svg>
