<svg width="123" height="100" viewBox="0 0 123 100" fill="none" xmlns="http://www.w3.org/2000/svg"><path opacity=".581" fill-rule="evenodd" clip-rule="evenodd" d="M122.055 60.86C120.29 36.744 39.68 7.34 16.096 23.405-9 40.5-5.09 83.927 31.742 94.905c54.854 10 92.078-9.93 90.313-34.045z" fill="#E0EFF1"/><path fill-rule="evenodd" clip-rule="evenodd" d="M92.257 41.538c-.943-.005-1.857-.127-2.503-1.05-1.266-1.813-3.2-3.44-5.368-1.596-1.251 1.063-.31 3.25-1.387 4.301-.952.93-2.162.777-2.649 2.32-.716 2.272 1.54 4.262 2.266 6.227.608 1.648-.76 2.276-1.374 3.56-.474.99-.23 2.05.285 2.998.91 1.67 2.928 3.013 2.461 5.174-.39 1.805-.753 3.412.84 4.78 1.092.937 3.119 1.79 2.965 3.525-.055.614-.48 1.137-.597 1.742-.184.958.436 1.89 1.158 2.548 1.64 1.495 3.082 2.906 4.31 4.788.526.803 2.628 2.62 1.788 3.719 1.527-1.998 3.141-3.936 4.529-6.037 1.142-1.728 2.862-4.255 1.691-6.383-.365-.661-1.042-1.155-1.228-1.887-.335-1.322.966-2.549 1.449-3.674.759-1.766.202-3.818-1.135-5.143-.633-.627-1.32-1.318-1.412-2.203-.101-.967.505-1.869.78-2.76.255-.823.412-1.698.506-2.552.065-.603.09-1.22-.052-1.81-.27-1.122-1.281-1.746-2.03-2.542-1.781-1.894-.844-4.123-1.623-6.326-.7-1.977-2.217-1.71-3.67-1.719z" fill="#1D7E8E"/><mask id="a" mask-type="alpha" maskUnits="userSpaceOnUse" x="80" y="38" width="22" height="47"><path d="M92.246 41.525c-.944-.006-1.86-.127-2.506-1.05-1.27-1.814-3.206-3.442-5.378-1.598-1.253 1.063-.311 3.251-1.389 4.303-.954.931-2.166.777-2.654 2.322-.717 2.272 1.543 4.263 2.27 6.228.609 1.648-.761 2.277-1.377 3.561-.474.992-.23 2.052.286 3 .912 1.67 2.934 3.014 2.465 5.175-.39 1.805-.754 3.414.842 4.781 1.094.938 3.124 1.792 2.97 3.527-.056.614-.482 1.138-.598 1.743-.185.958.437 1.89 1.16 2.548 1.643 1.496 3.087 2.907 4.318 4.79.526.804 2.632 2.62 1.79 3.72 1.53-1.998 3.147-3.938 4.537-6.039 1.144-1.728 2.867-4.256 1.693-6.385-.364-.662-1.043-1.155-1.23-1.888-.334-1.323.968-2.55 1.452-3.675.76-1.766.202-3.819-1.137-5.145-.634-.627-1.321-1.318-1.414-2.204-.102-.967.506-1.869.782-2.761a13.77 13.77 0 0 0 .506-2.552c.065-.603.09-1.221-.052-1.811-.27-1.122-1.283-1.746-2.033-2.543-1.785-1.895-.846-4.124-1.627-6.327-.623-1.763-1.898-1.743-3.198-1.724-.16.002-.32.004-.478.004z" fill="#fff"/></mask><g mask="url(#a)"><path d="M92.246 41.525c-.944-.006-1.86-.127-2.506-1.05-1.27-1.814-3.206-3.442-5.378-1.598-1.253 1.063-.311 3.251-1.389 4.303-.954.931-2.166.777-2.654 2.322-.717 2.272 1.543 4.263 2.27 6.228.609 1.648-.761 2.277-1.377 3.561-.474.992-.23 2.052.286 3 .912 1.67 2.934 3.014 2.465 5.175-.39 1.805-.754 3.414.842 4.781 1.094.938 3.124 1.792 2.97 3.527-.056.614-.482 1.138-.598 1.743-.185.958.437 1.89 1.16 2.548 1.643 1.496 3.087 2.907 4.318 4.79.526.804 2.632 2.62 1.79 3.72 1.53-1.998 3.147-3.938 4.537-6.039 1.144-1.728 2.867-4.256 1.693-6.385-.364-.662-1.043-1.155-1.23-1.888-.334-1.323.968-2.55 1.452-3.675.76-1.766.202-3.819-1.137-5.145-.634-.627-1.321-1.318-1.414-2.204-.102-.967.506-1.869.782-2.761a13.77 13.77 0 0 0 .506-2.552c.065-.603.09-1.221-.052-1.811-.27-1.122-1.283-1.746-2.033-2.543-1.785-1.895-.846-4.124-1.627-6.327-.623-1.763-1.898-1.743-3.198-1.724-.16.002-.32.004-.478.004z" fill="#A3BFC6"/><path fill-rule="evenodd" clip-rule="evenodd" d="M94.815 86.845c.183-2.089.269-4.181.269-6.273 0-5.521-.602-11.038-1.62-16.46-1.341-7.127-3.1-14.283-5.77-21.049a64.827 64.827 0 0 0-3-6.556l-.32.168a64.457 64.457 0 0 1 2.984 6.52c2.657 6.735 4.412 13.87 5.75 20.983 1.016 5.405 1.614 10.899 1.614 16.394 0 2.082-.086 4.163-.267 6.24l.36.033z" fill="#E6F2E7"/><path fill-rule="evenodd" clip-rule="evenodd" d="M78.477 46.924a45.725 45.725 0 0 1 10.539 5.331c.42.287.747.474 1.045.673.3.2.573.415.911.77l.262-.248a5.48 5.48 0 0 0-.971-.82c-.314-.21-.635-.394-1.044-.672a46.054 46.054 0 0 0-10.621-5.374l-.12.34zm14.497 14.618a31.542 31.542 0 0 0-11.943-4.6l-.06.356a31.18 31.18 0 0 1 11.807 4.546l.196-.302zm1.44 9.792a26.98 26.98 0 0 0-11.807-5.912l-.078.352a26.617 26.617 0 0 1 11.648 5.833l.237-.273z" fill="#E6F2E7"/><path fill-rule="evenodd" clip-rule="evenodd" d="M91.098 53.335a32.973 32.973 0 0 1 2.92-11.562l-.329-.15a33.328 33.328 0 0 0-2.952 11.689l.36.023zm1.896 8.104a29.156 29.156 0 0 1 7.109-9.478l-.239-.27a29.504 29.504 0 0 0-7.197 9.596l.327.152zm1.7 10.347c.231-1.101.636-2.165 1.194-3.142.65-1.136 1.507-2.151 2.386-3.148a96.12 96.12 0 0 1 1.931-2.124l-.264-.246c-.656.7-1.303 1.412-1.938 2.132-.882 1-1.756 2.033-2.428 3.207a11.168 11.168 0 0 0-1.234 3.247l.354.074z" fill="#E6F2E7"/></g><path fill-rule="evenodd" clip-rule="evenodd" d="M103.825 55.3c.685.126 1.365.165 1.961-.416 1.17-1.14 2.798-2.054 4.116-.416.76.945-.225 2.402.41 3.314.562.807 1.461.863 1.6 2.05.205 1.749-1.708 2.881-2.506 4.207-.669 1.111.236 1.757.503 2.774.207.785-.116 1.52-.622 2.136-.892 1.086-2.542 1.782-2.502 3.415.033 1.364.073 2.581-1.272 3.352-.922.53-2.51.87-2.638 2.15-.046.453.19.892.191 1.347.001.72-.579 1.311-1.193 1.688-1.397.86-2.638 1.683-3.79 2.88-.492.51-2.27 1.537-1.813 2.451-.83-1.661-1.733-3.291-2.449-5.008-.589-1.412-1.487-3.484-.342-4.867.356-.43.915-.694 1.152-1.2.426-.914-.347-1.984-.542-2.867-.306-1.386.383-2.798 1.536-3.576.546-.368 1.14-.773 1.33-1.403.207-.688-.108-1.427-.185-2.112a10.178 10.178 0 0 1-.012-1.922c.036-.447.103-.898.288-1.306.351-.777 1.171-1.09 1.825-1.564 1.555-1.13 1.184-2.876 2.054-4.367.78-1.339 1.845-.935 2.9-.74z" fill="#00A09D"/><mask id="b" mask-type="alpha" maskUnits="userSpaceOnUse" x="92" y="53" width="20" height="34"><path d="M103.837 55.339c.686.126 1.367.165 1.964-.416 1.172-1.14 2.803-2.053 4.123-.416.76.945-.226 2.402.41 3.314.563.806 1.464.863 1.603 2.05.205 1.747-1.711 2.88-2.51 4.205-.671 1.111.236 1.756.504 2.773.207.785-.117 1.52-.624 2.135-.893 1.086-2.546 1.782-2.506 3.415.033 1.363.074 2.58-1.273 3.351-.924.53-2.515.869-2.643 2.149-.046.453.19.892.191 1.347.002.72-.579 1.31-1.195 1.688-1.399.858-2.642 1.682-3.796 2.878-.493.51-2.273 1.537-1.815 2.45-.832-1.66-1.736-3.29-2.454-5.006-.59-1.411-1.489-3.483-.342-4.866.356-.43.917-.693 1.154-1.2.427-.912-.348-1.982-.543-2.865-.307-1.386.383-2.798 1.538-3.576.547-.367 1.142-.772 1.332-1.402.208-.688-.108-1.426-.184-2.112a10.157 10.157 0 0 1-.013-1.92c.036-.448.104-.899.288-1.307.352-.777 1.174-1.09 1.828-1.563 1.558-1.13 1.187-2.876 2.058-4.366.782-1.338 1.848-.935 2.905-.74z" fill="#fff"/></mask><g mask="url(#b)"><path d="M103.837 55.339c.686.126 1.367.165 1.964-.416 1.172-1.14 2.803-2.053 4.123-.416.76.945-.226 2.402.41 3.314.563.806 1.464.863 1.603 2.05.205 1.747-1.711 2.88-2.51 4.205-.671 1.111.236 1.756.504 2.773.207.785-.117 1.52-.624 2.135-.893 1.086-2.546 1.782-2.506 3.415.033 1.363.074 2.58-1.273 3.351-.924.53-2.515.869-2.643 2.149-.046.453.19.892.191 1.347.002.72-.579 1.31-1.195 1.688-1.399.858-2.642 1.682-3.796 2.878-.493.51-2.273 1.537-1.815 2.45-.832-1.66-1.736-3.29-2.454-5.006-.59-1.411-1.489-3.483-.342-4.866.356-.43.917-.693 1.154-1.2.427-.912-.348-1.982-.543-2.865-.307-1.386.383-2.798 1.538-3.576.547-.367 1.142-.772 1.332-1.402.208-.688-.108-1.426-.184-2.112a10.157 10.157 0 0 1-.013-1.92c.036-.448.104-.899.288-1.307.352-.777 1.174-1.09 1.828-1.563 1.558-1.13 1.187-2.876 2.058-4.366.782-1.338 1.848-.935 2.905-.74z" fill="#A3BFC6"/><path fill-rule="evenodd" clip-rule="evenodd" d="M96 87.89c.567-5.57 2.064-11.01 4.113-16.22 1.957-4.974 4.218-9.904 7.078-14.419a47.759 47.759 0 0 1 3.065-4.313l-.282-.225a47.685 47.685 0 0 0-3.088 4.346c-2.878 4.542-5.148 9.493-7.11 14.48-2.057 5.232-3.563 10.705-4.136 16.314l.36.037z" fill="#D5E7EA"/><path fill-rule="evenodd" clip-rule="evenodd" d="M113.028 60.847a34.077 34.077 0 0 0-8.461 2.435c-.334.145-.591.233-.85.343-.259.11-.516.241-.828.466l.211.292c.292-.209.516-.323.759-.426.242-.104.505-.194.852-.345a33.746 33.746 0 0 1 8.371-2.408l-.054-.357zM100.65 70.05a23 23 0 0 1 9.175-1.664l.01-.36a23.356 23.356 0 0 0-9.321 1.691l.136.333zm-2.363 6.885a19.622 19.622 0 0 1 9.236-2.616l-.01-.36a19.987 19.987 0 0 0-9.407 2.664l.181.313z" fill="#D5E7EA"/><path fill-rule="evenodd" clip-rule="evenodd" d="M103.344 64.104a24.66 24.66 0 0 0-.521-8.904l-.351.086a24.3 24.3 0 0 1 .513 8.773l.359.045zm-2.507 5.5a21.825 21.825 0 0 0-3.899-7.971l-.285.22a21.466 21.466 0 0 1 3.833 7.84l.351-.089zm-2.66 7.342a8.283 8.283 0 0 0-.447-2.54c-.327-.95-.82-1.822-1.32-2.67a71.789 71.789 0 0 0-1.112-1.816l-.305.192c.377.597.746 1.2 1.106 1.807.499.843.977 1.695 1.29 2.604.267.781.413 1.604.427 2.43l.361-.007z" fill="#D5E7EA"/></g><path fill-rule="evenodd" clip-rule="evenodd" d="M89.17 85.944h14.016l-2.459 13.984h-9.098L89.17 85.944zM87.436 85.944h17.412V82.05H87.436v3.893z" fill="#C2B6AB"/><path fill-rule="evenodd" clip-rule="evenodd" d="M89.531 87.818l-.36-1.874.36 1.874z" fill="#D7E0DC"/><path fill-rule="evenodd" clip-rule="evenodd" d="M102.86 87.818H89.496l-.326-1.874h14.016l-.326 1.874z" fill="#B2A79D"/><path fill-rule="evenodd" clip-rule="evenodd" d="M41.447 87.025h26.22c7.274 0 13.14-5.944 13.034-13.206l.016-36.392c-.103-7.114-5.91-12.827-13.035-12.827H41.978c-7.125 0-12.93 5.713-13.034 12.827l-.531 36.392c-.106 7.263 5.76 13.206 13.034 13.206z" fill="#B4D0D6"/><path fill-rule="evenodd" clip-rule="evenodd" d="M41.457 87.169h26.241c7.28 0 13.151-5.944 13.045-13.207 0 0 .098-20.75.01-25.574-11.829 16.305-40.102 16.47-51.97.183-.103 6.334-.37 25.391-.37 25.391-.106 7.263 5.765 13.207 13.044 13.207z" fill="#A3BFC6"/><path fill-rule="evenodd" clip-rule="evenodd" d="M35.31 65.255H74.18c.3 0 .542.243.542.54v9.012c0 .298-.243.54-.542.54H35.311a.541.541 0 0 1-.542-.54v-9.011c0-.299.243-.54.542-.54z" fill="#A3BFC6"/><path fill-rule="evenodd" clip-rule="evenodd" d="M36.137 65.255h37.216c.755 0 1.368.614 1.368 1.37H34.769c0-.756.612-1.37 1.368-1.37zm0 10.092h37.216a1.37 1.37 0 0 0 1.368-1.37H34.769c0 .757.613 1.37 1.368 1.37z" fill="#A3BFC6"/><path fill-rule="evenodd" clip-rule="evenodd" d="M26.1 93.368h57.724V88.25H26.099v5.118z" fill="#C2B6AB"/><path fill-rule="evenodd" clip-rule="evenodd" d="M77.466 94.558a3.284 3.284 0 0 0 3.288 3.28 3.284 3.284 0 0 0 3.287-3.28 3.284 3.284 0 0 0-3.287-3.28 3.284 3.284 0 0 0-3.288 3.28z" fill="#C2B6AB"/><path fill-rule="evenodd" clip-rule="evenodd" d="M78.695 97.838a2.02 2.02 0 0 0 2.022 2.018 2.02 2.02 0 0 0 2.023-2.018 2.02 2.02 0 0 0-2.023-2.019 2.02 2.02 0 0 0-2.022 2.019zM25.738 94.63a3.283 3.283 0 0 0 3.287 3.28 3.283 3.283 0 0 0 3.288-3.28 3.284 3.284 0 0 0-3.288-3.28 3.284 3.284 0 0 0-3.287 3.28z" fill="#C2B6AB"/><path fill-rule="evenodd" clip-rule="evenodd" d="M26.966 97.91a2.02 2.02 0 0 0 2.023 2.018 2.02 2.02 0 0 0 2.023-2.018 2.021 2.021 0 0 0-2.023-2.019 2.021 2.021 0 0 0-2.023 2.019z" fill="#C2B6AB"/><path fill-rule="evenodd" clip-rule="evenodd" d="M29.95 49.098c.15.68 3.033 13.366 3.169 14.364.135.996-.046 4.14-.04 3.58.006-.56-.044 1.186 1.055 1.013.549-.086 4.732-1.433 8.978-2.101 4.26-.67 8.582-.663 9-.738.835-.15 1.131-.604 1.412-1.894.282-1.29-1.6-6.507-1.895-8.196-.293-1.688-.443-8.027-.638-8.856-.257-1.097-1.315-1.441-2.22-1.319-.519.07-5.84 1.185-9.994 1.747-4.099.554-7.032.557-7.462.615-.864.117-1.515 1.104-1.365 1.785z" fill="#A3BFC6"/><path fill-rule="evenodd" clip-rule="evenodd" d="M30.022 49.076c.15.68 3.033 13.382 3.169 14.38.135.998-.046 4.145-.04 3.585.006-.56-.044 1.187 1.055 1.014.549-.086 4.732-1.435 8.979-2.104 4.258-.67 8.581-.663 9-.738.834-.15 1.13-.605 1.412-1.896.127-.587-.191-1.985-.605-3.495-8.929 4.556-20.442 3.468-20.565-12.587-.55.024-.91.036-1.04.054-.864.117-1.515 1.105-1.365 1.787z" fill="#A3BFC6"/><path fill-rule="evenodd" clip-rule="evenodd" d="M24.866 55.813h5.93a3.964 3.964 0 0 1 3.969 3.958V75.56h39.96V59.771a3.964 3.964 0 0 1 3.969-3.958h5.93a3.964 3.964 0 0 1 3.968 3.958V75.56l-.912 11.466H21.81l-.912-11.466V59.771a3.964 3.964 0 0 1 3.968-3.958z" fill="#B4D0D6"/><path fill-rule="evenodd" clip-rule="evenodd" d="M25.374 90.485h58.814a3.463 3.463 0 0 0 3.465-3.46H21.91c0 1.91 1.551 3.46 3.465 3.46z" fill="#A3BFC6"/><path fill-rule="evenodd" clip-rule="evenodd" d="M80.645 37.426c-.104-7.114-7.092-16.286-21.437-16.286h-9.31c-14.016 0-20.981 9.092-20.981 16.286 13.64-3.556 9.613 5.556 25.819 5.556s13.712-8.07 25.91-5.556zM74.65 60.354c0 4.897 3.979 8.866 8.886 8.866 4.907 0 8.886-3.97 8.886-8.866 0-4.897-3.979-8.867-8.886-8.867-4.907 0-8.886 3.97-8.886 8.867z" fill="#B4D0D6"/><path fill-rule="evenodd" clip-rule="evenodd" d="M79.128 60.39a4.438 4.438 0 0 0 4.444 4.433 4.438 4.438 0 0 0 4.442-4.433 4.438 4.438 0 0 0-4.442-4.433 4.438 4.438 0 0 0-4.444 4.433z" fill="#A3BFC6"/><path fill-rule="evenodd" clip-rule="evenodd" d="M16.996 60.354c0 4.897 3.979 8.866 8.887 8.866 4.907 0 8.886-3.97 8.886-8.866 0-4.897-3.979-8.867-8.886-8.867-4.908 0-8.887 3.97-8.887 8.867z" fill="#B4D0D6"/><path fill-rule="evenodd" clip-rule="evenodd" d="M21.476 60.39a4.438 4.438 0 0 0 4.443 4.433 4.438 4.438 0 0 0 4.443-4.433 4.438 4.438 0 0 0-4.443-4.433 4.438 4.438 0 0 0-4.443 4.433z" fill="#A3BFC6"/><path fill-rule="evenodd" clip-rule="evenodd" d="M53.192 32.06c0 .857.695 1.55 1.553 1.55.857 0 1.553-.693 1.553-1.55 0-.855-.696-1.549-1.553-1.549-.858 0-1.553.694-1.553 1.55z" fill="#66A5AF"/><path fill-rule="evenodd" clip-rule="evenodd" d="M67.818 36.553c-2.195.894-4.962.623-6.901-.753-1.948-1.383-3.735-2.4-6.21-2.473-1.537-.045-2.978.596-4.443.963-1.288.322-2.272 1.354-3.66 1.544-1.825.25-3.699-.87-4.52-2.515-.82-1.646-.64-3.693.277-5.287.67-1.163 1.287-2.03.534-3.327-.164-.283-.37-.544-.483-.85-.106-.29-.122-.605-.11-.913.068-1.68 1.343-2.94 2.193-4.327.199-.324.398-.66.458-1.036.153-.955-.608-1.78-1.013-2.659-1.314-2.847.928-6.084 3.11-7.792 1.287-1.008 2.83-1.415 4.218-2.236.632-.374 1.209-.837 1.848-1.198 1.116-.63 2.331-.656 3.57-.483 3.529.494 7.54 3.053 8.357 6.737.555 2.497-.353 5.4 2.126 7.148.746.526 1.69.84 2.199 1.597 1.082 1.61-.508 3.996.482 5.664.22.372.55.665.85.977a8.037 8.037 0 0 1 2.179 6.269c-.054.554-.171 1.112-.445 1.597-.377.666-1.015 1.137-1.64 1.582-.933.664-1.886 1.32-2.945 1.758l-.031.013z" fill="#152439"/><path fill-rule="evenodd" clip-rule="evenodd" d="M71.109 27.135a2.964 2.964 0 0 1-.833-1.211 4.244 4.244 0 0 1-.262-1.508c0-.38.045-.762.127-1.128.098-.431.242-.864.364-1.306.123-.442.223-.894.223-1.364 0-.042 0-.083-.003-.125a3.114 3.114 0 0 0-.619-1.718 3.131 3.131 0 0 0-1.463-1.098c-.299-.105-.605-.162-.898-.226-.294-.063-.576-.133-.83-.254-.387-.184-.688-.47-.931-.813a4.923 4.923 0 0 1-.577-1.147c-.172-.472-.21-.904-.212-1.36 0-.359.025-.732.026-1.142v-.042c-.006-1.2-.036-2.402-.159-3.6-.073-.71-.32-1.411-.67-2.06A8.108 8.108 0 0 0 62.68 4.87c-.801-.713-1.83-1.293-2.955-1.697a10.618 10.618 0 0 0-3.54-.63c-1.346 0-2.655.289-3.733.947a3.966 3.966 0 0 0-.773.635c-.224.23-.43.47-.655.699-.451.46-1.048.842-1.61 1.193-1.132.708-2.355 1.269-3.563 1.866-.772.382-1.573.798-2.164 1.47-.68.775-.991 1.811-.992 2.828l.002.146c.032 1.061.38 2.086.862 3.017.34.657.741 1.271.946 1.943.06.198.087.393.088.584 0 .419-.133.823-.35 1.198-.218.374-.522.716-.855 1.005-.315.273-.66.539-.974.837-.314.299-.599.631-.785 1.04a2.42 2.42 0 0 0-.213 1c0 .4.095.8.287 1.155.165.306.387.562.598.813.212.251.413.495.548.768.133.269.2.57.2.871 0 .285-.06.569-.18.826-.135.293-.357.593-.551.905a3.15 3.15 0 0 0-.253.481 1.4 1.4 0 0 0-.11.523c0 .116.017.234.057.353l.274-.09a.822.822 0 0 1-.043-.263c0-.136.033-.273.09-.416.086-.213.226-.434.376-.662.15-.227.307-.461.423-.71a2.25 2.25 0 0 0 .206-.947c0-.344-.076-.688-.23-.998-.155-.313-.373-.574-.585-.826-.213-.252-.42-.495-.566-.765a2.148 2.148 0 0 1-.252-1.018c0-.303.063-.607.188-.882.164-.36.42-.664.72-.949.3-.285.642-.548.965-.828.353-.306.677-.67.915-1.079.237-.408.389-.862.389-1.342 0-.219-.032-.442-.1-.668-.223-.724-.635-1.35-.966-1.991-.468-.905-.8-1.89-.83-2.894a4.83 4.83 0 0 1-.001-.137c0-.96.296-1.929.92-2.638.541-.619 1.305-1.023 2.075-1.402 1.203-.594 2.435-1.159 3.587-1.88.565-.353 1.18-.743 1.664-1.235.234-.24.44-.479.655-.7.216-.22.441-.421.717-.59 1.02-.624 2.277-.905 3.581-.905 1.156 0 2.348.22 3.443.613 1.095.393 2.092.958 2.86 1.64a7.853 7.853 0 0 1 1.65 2.085c.335.623.57 1.29.638 1.953.121 1.184.151 2.377.156 3.572v.04c0 .4-.025.771-.025 1.143 0 .472.041.946.23 1.459.153.418.347.84.611 1.215.265.373.603.697 1.043.906.29.138.595.211.894.276.299.064.592.12.863.216a2.84 2.84 0 0 1 1.326.997c.336.453.542 1 .564 1.558l.002.114c0 .429-.093.855-.212 1.287-.12.433-.266.87-.368 1.32a5.455 5.455 0 0 0-.134 1.191c0 .552.088 1.104.28 1.61.194.506.493.966.916 1.328l.188-.219z" fill="#0B2D4E"/><path fill-rule="evenodd" clip-rule="evenodd" d="M67.25 60.986c-.306.818-.708 1.53-1.106 2.117-2.167 3.205-4.758 5.396-7.327 6.809-2.293 1.26-4.697 1.205-7.044.716-1.604-.335-3.2-1.388-4.746-2.366-1.592-1.006-3.16-2.204-4.644-3.796-1.169-1.254-2.216-2.812-2.394-5.776-.07-1.165.051-2.457.472-3.247.508-.953 1.276-.92 1.96-.809 3.876.637 7.629 3.404 11.532 3.454 2.178.03 4.209-1.171 6.302-2.257 1.615-.837 3.407-1.758 5.088-1.583 1.524.16 3.031 3.734 1.907 6.738z" fill="#383F80"/><path fill-rule="evenodd" clip-rule="evenodd" d="M43.346 54.027l-.278-.627a30.818 30.818 0 0 1-2.185-7c-.16-.869-.324-1.82-.99-2.402-.921-.806-2.716-.703-3.857-.55-.534.07-1.091.254-1.413.684-.534.712-.48 2.318-.501 3.176-.128 5.212 4.007 9.522 7.374 13.04.649.677 1.353 1.361 2.25 1.636.9.273 2.04-.011 2.432-.862.289-.624.112-1.356-.116-2.004-.393-1.116-.984-2.137-1.656-3.106-.455-.655-.753-1.294-1.06-1.985z" fill="#E0D1C2"/><path fill-rule="evenodd" clip-rule="evenodd" d="M63.104 25.634c.137.91.034 1.846-.366 2.677-1.078 2.241-3.746 2.679-5.996 2.766-.833.033-1.67-.009-2.495-.132-.735-.11-1.39.002-2.133-.015a8.165 8.165 0 0 1-4.167-1.253c-.603-.383-1.171-.867-1.48-1.51-.426-.886-.302-1.932-.077-2.887.13-.552.293-1.103.576-1.594.304-.525.739-.972.992-1.523.475-1.036.084-2.248.507-3.264.33-.797 1.162-1.695 1.852-2.193.94-.677 2.151-.891 3.306-.812 1.156.078 2.274.426 3.375.786.866.283 1.61.108 2.247.824.503.567.327 1.493.489 2.18.541 2.311 3.006 3.531 3.37 5.95z" fill="#061F33"/><path fill-rule="evenodd" clip-rule="evenodd" d="M47.151 35.898c-1.47 2.518-3.125 4.934-4.706 7.382-.884 1.368-1.778 2.758-2.251 4.315-2.18-.053-4.367-.514-6.509-.923.344-2.89 1.871-5.51 3.237-8.028 1.423-2.624 2.955-5.189 4.294-7.858 1.089-2.17 3.122-4.76 5.842-3.455 2.092 1.004 1.767 3.88 1.335 5.735-.231.99-.71 1.922-1.242 2.832z" fill="#E5504D"/><path fill-rule="evenodd" clip-rule="evenodd" d="M63.688 54.027l.277-.627a30.787 30.787 0 0 0 2.185-7c.16-.869.324-1.82.99-2.402.921-.806 2.716-.703 3.858-.55.533.07 1.09.254 1.412.684.534.712.48 2.318.502 3.176.127 5.212-4.008 9.522-7.375 13.04-.649.677-1.352 1.361-2.25 1.636-.898.273-2.04-.011-2.432-.862-.288-.624-.111-1.356.117-2.004.392-1.116.983-2.137 1.656-3.106.454-.655.753-1.294 1.06-1.985z" fill="#E0D1C2"/><path fill-rule="evenodd" clip-rule="evenodd" d="M59.882 35.898c1.47 2.518 3.125 4.934 4.707 7.382.883 1.368 1.777 2.758 2.25 4.315 2.18-.053 4.368-.514 6.51-.923-.345-2.89-1.871-5.51-3.237-8.028-1.423-2.624-2.956-5.189-4.295-7.858-1.088-2.17-3.122-4.76-5.841-3.455-2.093 1.004-1.767 3.88-1.335 5.735.23.99.71 1.922 1.241 2.832z" fill="#E5504D"/><path fill-rule="evenodd" clip-rule="evenodd" d="M64.464 56.422c-.608-1.61-1.524-2.927-2.05-4.591-.714-2.259-1.2-5.478-.38-7.816.87-2.482 1.937-4.44 2.002-7.204.055-2.367-.424-4.698-.9-7.004-.472-2.283-.686-2.946-2.931-3.294-.8-.125-1.59-.34-2.388-.482a23.753 23.753 0 0 0-4.102-.349h-.107c-1.376.003-2.748.11-4.102.35-.799.14-1.589.356-2.389.48-2.244.349-2.458 1.012-2.93 3.295-.476 2.306-.955 4.637-.9 7.004.065 2.764 1.132 4.722 2.002 7.204.819 2.338.333 5.557-.38 7.816-.526 1.663-1.442 2.98-2.05 4.591-.048.126-.094.263-.058.395.047.168.212.267.363.346 2.983 1.552 6.327 2.019 9.597 2.259.287.02.567.042.842.059v.008c.02 0 .04-.002.058-.004a1.4 1.4 0 0 0 .058.004v-.008c.276-.017.556-.038.843-.06 3.27-.239 6.613-.706 9.597-2.258.15-.08.316-.178.362-.346.037-.132-.01-.27-.057-.395z" fill="#EF5132"/><mask id="c" mask-type="alpha" maskUnits="userSpaceOnUse" x="42" y="25" width="23" height="35"><path d="M64.434 56.431c-.608-1.612-1.522-2.93-2.048-4.595-.713-2.26-1.198-5.482-.38-7.821.87-2.484 1.935-4.444 2-7.21.055-2.369-.423-4.702-.9-7.01-.47-2.284-.684-2.948-2.927-3.296-.799-.124-1.588-.34-2.385-.482a23.688 23.688 0 0 0-4.098-.349h-.107a23.69 23.69 0 0 0-4.098.35c-.798.14-1.587.357-2.386.48-2.242.35-2.456 1.013-2.927 3.298-.476 2.307-.955 4.64-.9 7.009.066 2.767 1.131 4.726 2 7.21.819 2.339.333 5.56-.38 7.82-.525 1.666-1.44 2.984-2.047 4.596-.048.126-.094.263-.058.394.047.169.212.268.363.347 2.98 1.553 6.32 2.02 9.587 2.26.287.021.566.042.842.06v.008l.057-.004.058.004v-.008c.276-.017.555-.038.842-.06 3.267-.24 6.607-.707 9.587-2.26.151-.08.316-.178.362-.347.037-.13-.01-.269-.057-.394z" fill="#fff"/></mask><g mask="url(#c)"><path d="M64.434 56.431c-.608-1.612-1.522-2.93-2.048-4.595-.713-2.26-1.198-5.482-.38-7.821.87-2.484 1.935-4.444 2-7.21.055-2.369-.423-4.702-.9-7.01-.47-2.284-.684-2.948-2.927-3.296-.799-.124-1.588-.34-2.385-.482a23.688 23.688 0 0 0-4.098-.349h-.107a23.69 23.69 0 0 0-4.098.35c-.798.14-1.587.357-2.386.48-2.242.35-2.456 1.013-2.927 3.298-.476 2.307-.955 4.64-.9 7.009.066 2.767 1.131 4.726 2 7.21.819 2.339.333 5.56-.38 7.82-.525 1.666-1.44 2.984-2.047 4.596-.048.126-.094.263-.058.394.047.169.212.268.363.347 2.98 1.553 6.32 2.02 9.587 2.26.287.021.566.042.842.06v.008l.057-.004.058.004v-.008c.276-.017.555-.038.842-.06 3.267-.24 6.607-.707 9.587-2.26.151-.08.316-.178.362-.347.037-.13-.01-.269-.057-.394z" fill="#FF5754"/><path fill-rule="evenodd" clip-rule="evenodd" d="M60.739 26.979c.138-.425.66-1.373.397-1.744-.265-.374-1.246-.293-1.63-.28l-12.646.423c.244.902.254 1.743.6 2.635a8.46 8.46 0 0 0 1.185 2.12c.996 1.287 2.403 2.187 4.007 2.501 2.715.531 5.715-.79 7.09-3.186.443-.772.721-1.624.997-2.47z" fill="#E5504D"/></g><path fill-rule="evenodd" clip-rule="evenodd" d="M50.51 30.098c1.323 1.497 3.866 1.616 5.645 1.003 1.211-.417 2.067-1.367 2.093-2.674.029-1.462-1.259-2.5-1.584-3.862-.185-.772-.167-1.567-.147-2.353.022-.917.028-1.836.073-2.752-.912-.191-1.65-.288-2.619-.248-.8.033-1.601-.05-2.402-.003-.064.003-.134.01-.18.053-.045.042-.054.11-.06.172-.107 1.238-.001 2.491-.085 3.732-.077 1.14-.334 2.287-1.004 3.23-.818 1.152-.616 2.698.27 3.702z" fill="#E0D1C2"/><path fill-rule="evenodd" clip-rule="evenodd" d="M56.587 24.392c-.142-.718-.128-1.453-.11-2.18.022-.917.028-1.836.073-2.752-.907-.192-1.643-.288-2.606-.248-.797.033-1.593-.05-2.39-.003-.064.003-.133.01-.179.053-.045.042-.054.11-.059.172-.107 1.238-.002 2.491-.086 3.732-.023.355-.068.71-.133 1.06.125.11.252.215.383.312.984.728 2.31.97 3.487.636a5.257 5.257 0 0 0 1.62-.782z" fill="#C2B6AB"/><path fill-rule="evenodd" clip-rule="evenodd" d="M59.98 14.571c-.025-1.214-.21-2.364-.536-3.317-1.413-4.11-6.592-5.055-9.66-2.047-3.42 3.354-1.98 11.237 1.714 13.96.987.73 2.318.971 3.5.637 3.576-1.011 5.06-5.438 4.982-9.233z" fill="#E0D1C2"/><path fill-rule="evenodd" clip-rule="evenodd" d="M51.76 16.838c-.056.198.052.378.244.403.19.025.39-.114.448-.311.056-.198-.052-.378-.243-.403-.19-.025-.392.115-.448.311zm2.886 0c-.057.198.051.378.242.403.192.025.392-.114.449-.312.057-.197-.052-.377-.242-.402-.192-.025-.392.115-.449.311z" fill="#151F35"/><path fill-rule="evenodd" clip-rule="evenodd" d="M53.456 17.244s.168 1.333.453 2.036c-.304.28-.72-.008-.72-.008l.267-2.028z" fill="#C1B3A6"/><path fill-rule="evenodd" clip-rule="evenodd" d="M54.534 20.841h-.019c-1.525-.129-2.02-.64-2.041-.662-.02-.02.004-.045.053-.054.05-.009.107.002.127.023.004.005.48.49 1.898.61.053.005.087.027.077.05l-.095.034zm-3.29-5.036a.26.26 0 0 1-.163-.054c-.082-.067-.074-.17.016-.229.905-.597 1.888-.411 1.928-.403.117.023.188.112.155.198-.03.086-.148.138-.267.114-.033-.005-.8-.144-1.522.332l-.147.042zM56.738 15.751c.082-.067.074-.17-.016-.229-.905-.597-1.888-.411-1.929-.403-.117.023-.187.112-.154.198.03.086.148.138.267.114.033-.005.8-.144 1.523.332l.146.042c.06 0 .12-.019.163-.054z" fill="#151F35"/><path fill-rule="evenodd" clip-rule="evenodd" d="M59.957 11.006c-1.113-4.209-6.216-5.526-9.496-2.74-.524.444-.887.974-1.26 1.541-.316.481-.757.845-1.036 1.374a4.753 4.753 0 0 0-.526 1.754c-.057.595.137 1.116.152 1.688a2.085 2.085 0 0 1 .692-1.592c.348-.309.787-.49 1.192-.719.404-.228.8-.536.952-.974 1.305 1.707 3.33 2.23 5.323 2.723 1.672.413 3.506 1.465 3.543 3.413.005.247.023.316.13.639.116-.293.159-.508.195-.82.036-.318.128-.634.19-.952.128-.654.21-1.316.246-1.981.063-1.216-.039-2.379-.297-3.354z" fill="#C2B6AB"/><path fill-rule="evenodd" clip-rule="evenodd" d="M60.903 18.2c.33-.25.585-.62.726-1.006.445-1.303.397-2.746.342-4.142-.03-.779-.062-1.569-.276-2.31-.233-.81-.676-1.53-1.2-2.145-1.51-1.78-3.766-2.683-5.935-2.499-.87.074-1.511.49-2.276.842-.747.345-1.624.534-2.41.791-.906.298-1.839.61-2.558 1.235-.525.456-.908 1.059-1.181 1.697-.328.766-.36 1.618-.267 2.435.078.673.167 1.392.467 2.02.28.589.906.973 1.466 1.267-.083-.044-.01-1.015-.013-1.165-.013-.858.035-1.739.304-2.56.261-.803.777-1.294 1.449-1.783.269-.197.537-.398.762-.646.113-.123.603-.693.522-.869.381.836.978 1.695 1.724 2.243 1.418 1.042 2.996 1.778 4.597 2.399.118.045.237.09.355.138.44.176.874.376 1.235.704.807.73.866 1.855.836 2.868a.92.92 0 0 0 .03.33c.17.498.977.401 1.3.156z" fill="#152439"/><path fill-rule="evenodd" clip-rule="evenodd" d="M38.566 42.693l-.257.577h30.632l-.308-.649-30.067.072z" fill="#B8D1CE"/><path fill-rule="evenodd" clip-rule="evenodd" d="M66.83 62.589H40.42l-1.891-19.6a.595.595 0 0 1 .587-.656h29.018c.349 0 .622.304.588.656l-1.893 19.6z" fill="#B8D1CE"/><path fill-rule="evenodd" clip-rule="evenodd" d="M67.087 63.093H40.236l-1.924-19.6a.599.599 0 0 1 .597-.656h29.504a.6.6 0 0 1 .598.656l-1.924 19.6z" fill="#fff"/><path fill-rule="evenodd" clip-rule="evenodd" d="M40.26 64.319h26.803v-1.226H40.26v1.225zM55.504 52.965a1.84 1.84 0 0 1-1.843 1.838 1.84 1.84 0 0 1-1.842-1.838 1.84 1.84 0 0 1 1.842-1.838 1.84 1.84 0 0 1 1.843 1.838z" fill="#DDE3E9"/><path fill-rule="evenodd" clip-rule="evenodd" d="M50.515 71.815c1.225-.22 2.445-.46 3.655-.662 6.073-1.012 12.405-2.199 17.92-5.044 1.271-.658 2.594-1.694 3.253-2.986 1.731-3.398-1.724-6.586-5.1-5.622-5.637 1.61-10.534 5.103-15.938 7.377-.902.38-1.81.777-2.724 1.176-.784.343-1.572.687-2.363 1.023" fill="#5C63AB"/><path fill-rule="evenodd" clip-rule="evenodd" d="M49.149 67.058c-.905.386-1.814.762-2.725 1.113-.931.36-6.325 1.555-5.124 3.6.236.401.758.507 1.218.565 2.647.335 5.301-.04 7.928-.513" fill="#E0D1C2"/><path fill-rule="evenodd" clip-rule="evenodd" d="M44.528 72.473c-1.165.132-2.384.092-3.465.154-.488.028-.976.057-1.464.053-.776-.007-1.548-.095-2.319-.183l-1.68-.192c-.304-.035-.623-.074-.877-.246-.303-.206-.46-.562-.602-.9-.282-.668-.641-1.314-.853-2.011-.139-.456-.288-.904.02-1.328.152-.207.362-.364.575-.507.274-.184.56-.353.869-.467 1.018-.372 1.964.026 2.916.391 1.008.387 2.01.804 3.064 1.046 1.136.26 2.304.31 3.463.384.925.058 2.363-.015 3.123.608.31.253.77.835.764 1.25-.008.524-.652.997-1.053 1.226-.74.422-1.595.622-2.481.722zm5.414 19.118c.62.995 1.41 1.925 2.032 2.811.28.4.562.799.868 1.18.487.603 1.037 1.153 1.585 1.702l1.195 1.197c.217.216.446.441.74.533.35.11.728.013 1.082-.085 1.322-.366 2.577-.397 2.61-2.072.021-1.063-.378-2.266-1.277-2.869-1.04-.697-2.177-1.222-3.16-2.008-.912-.728-1.677-1.612-2.455-2.475-.62-.688-1.457-1.86-2.42-2.069-.393-.086-1.137-.086-1.46.178-.408.332-.381 1.13-.312 1.586.127.841.5 1.635.972 2.391z" fill="#E0D1C2"/><path fill-rule="evenodd" clip-rule="evenodd" d="M40.332 72.639c-.985-.212-2.223-.565-2.82-1.378-.456-.623-.567-1.393-.474-2.159.092-.748.744-1.272 1.451-1.531-1.64-1.107-3.271-1.308-4.923-.885-.181.046-.36.112-.532.197-2.283 1.113-1.187 3.932.452 5.072.746.519 1.63.828 2.536.903.73.06 1.225.033 1.956.03.884-.003 1.345-.162 2.354-.25zm11.92 22.218c.783.645 1.836 1.401 2.85 1.364.778-.027 1.456-.42 2.003-.97.534-.538.54-1.38.304-2.099 1.9.604 3.077 1.765 3.775 3.33.077.172.136.355.177.543.546 2.493-2.366 3.386-4.292 2.804a5.234 5.234 0 0 1-2.296-1.437c-.504-.538-.793-.945-1.247-1.523-.55-.7-.712-1.161-1.274-2.012z" fill="#152439"/><path fill-rule="evenodd" clip-rule="evenodd" d="M50.685 82.133c.467 1.773.939 3.562 1.484 5.305.01.035.023.069.035.103.255.722.566 1.423.812 2.149.156.462.296.93.398 1.407a6.6 6.6 0 0 1 .11.679c.01.092.045.23.02.32-.032.116-.17.215-.273.26-.11.048-.23.065-.35.072-.477.026-.947-.112-1.398-.271a12.428 12.428 0 0 1-.823-.323c-.25-.109-.54-.213-.766-.365-.106-.072-.184-.21-.263-.314a22.868 22.868 0 0 1-.752-1.054c-.733-1.09-1.382-2.235-2.005-3.39-.619-1.147-1.212-2.307-1.842-3.448-2.976-5.385-5.974-11.083-7.164-17.168-.272-1.404-.28-3.082.326-4.4 1.595-3.461 6.245-2.728 7.584.514 2.235 5.416 2.531 11.417 4.1 17.06.261.943.514 1.9.767 2.864z" fill="#E0D1C2"/><path fill-rule="evenodd" clip-rule="evenodd" d="M46.797 86.592c-.586-1.095-1.152-2.2-1.744-3.272-2.968-5.382-5.959-11.077-7.145-17.158-.272-1.402-.28-3.079.325-4.396 1.59-3.459 6.229-2.727 7.564.513 2.229 5.413 2.525 11.41 4.089 17.05.261.942.513 1.899.766 2.861.217.826.435 1.657.661 2.484" fill="#5C63AB"/></svg>