<?xml version="1.0" encoding="UTF-8"?>
<svg width="106px" height="22px" viewBox="0 0 106 22" version="1.1" xmlns="http://www.w3.org/2000/svg" xmlns:xlink="http://www.w3.org/1999/xlink">
    <title>Asset 38</title>
    <g id="Explorations" stroke="none" stroke-width="1" fill="none" fill-rule="evenodd">
        <g id="BLT-439-Deal-Rating-Concept-Final" transform="translate(-354.000000, -756.000000)" fill-rule="nonzero">
            <g id="Group-3" transform="translate(354.000000, 660.000000)">
                <g id="Asset-38" transform="translate(-0.000000, 96.000000)">
                    <path d="M32.5556,6.24020571 C32.5379383,5.77327123 32.1458561,5.40862469 31.6788686,5.42482286 L29.8147771,5.47624 C29.4005591,5.49166715 29.0586168,5.80512758 29.0073143,6.21644571 C28.9942522,6.30886766 28.9753148,6.40036347 28.9506171,6.49037714 L28.7409257,6.07552 C27.9807314,4.66890286 26.9424571,2.97779429 25.8991543,1.91286857 L25.8999086,1.91286857 C26.2975429,2.40089143 22.5740114,0.299702857 23.1456343,0.415611429 C23.1421143,0.414731429 23.1389714,0.414228571 23.1354514,0.4136 C21.5348571,0.0724114286 18.9277943,-0.0155885714 16.3731543,0.00213714286 C13.8185143,-0.0155885714 11.2114514,0.0724114286 9.61085714,0.414857143 C9.60733714,0.414857143 9.60419429,0.415988571 9.60054857,0.416868571 C7.76310857,0.788982857 6.84627429,1.91412571 6.84627429,1.91412571 L6.84715429,1.91412571 C5.80372571,2.97905143 4.76557714,4.67016 4.00525714,6.07677714 L3.76979429,6.54192 C3.73805696,6.43547789 3.71410799,6.32686723 3.69813714,6.21694857 C3.64683461,5.80563044 3.3048923,5.49217001 2.89067429,5.47674286 L1.02658286,5.42482286 C0.559595313,5.40862469 0.167513136,5.77327123 0.149851429,6.24020571 L0.125714286,7.14886857 C0.109153416,7.61585867 0.473413705,8.00828167 0.940342857,8.02648 L2.92097143,8.25628571 L2.94536,8.21656 C2.93077714,8.25 2.91682286,8.28230857 2.90475429,8.31084571 C2.25028571,9.06161143 1.85202286,9.94136 1.73485714,10.6454857 C1.52114286,11.3772686 1.40070857,12.3091886 1.40070857,13.5017143 C1.40070857,15.2114286 1.86710857,17.5443086 1.97899429,18.6811429 L1.97899429,20.3776571 C1.97899429,21.2197052 2.6616091,21.90232 3.50365714,21.90232 L5.69234286,21.90232 C6.07451337,21.90232 6.44102751,21.7504862 6.71123929,21.4802272 C6.98145108,21.2099683 7.13322098,20.8434277 7.13315429,20.4612571 L7.13315429,19.1211429 C9.2972,18.9218857 12.8266286,18.8541257 16.3731543,18.8480914 C19.9195543,18.8541257 23.4491086,18.9218857 25.6131543,19.1211429 L25.6131543,20.4612571 C25.6131543,21.2568971 26.2580743,21.9019297 27.0537143,21.9020686 L29.2424,21.9020686 C29.6467875,21.90232 30.0346238,21.741483 30.3205807,21.4555496 C30.6065377,21.1696162 30.7671886,20.7817932 30.7671886,20.3774057 L30.7671886,18.6811429 C30.8792,17.54456 31.3454743,15.2123086 31.3454743,13.5017143 C31.3454743,10.85304 30.3623886,8.98517714 29.8405486,8.31084571 C29.8332571,8.29324571 29.8239543,8.27212571 29.8154057,8.25264 L31.7639771,8.02635429 C32.2309063,8.00815596 32.5951666,7.61573295 32.5786057,7.14874286 L32.5556,6.24020571 Z" id="Path" fill="#00CCC4" opacity="0.15"></path>
                    <g id="Group" transform="translate(36.582857, 4.400000)" fill="#00C2BA">
                        <g>
                            <path d="M2.52409143,5.10978286 L2.52409143,11.8326057 C2.52409143,12.054782 2.34398198,12.2348914 2.12180571,12.2348914 L1.21993143,12.2348914 C0.997755163,12.2348914 0.817645714,12.054782 0.817645714,11.8326057 L0.817645714,5.10978286 C0.817645714,4.88760659 0.637536265,4.70749714 0.41536,4.70749714 L0.41536,4.70749714 C0.193429247,4.70715038 0.0137028571,4.52714245 0.0137028571,4.30521143 L0.0137028571,3.55092571 C0.0140489711,3.32924012 0.193674409,3.14961469 0.41536,3.14926857 L0.41536,3.14926857 C0.637536265,3.14926857 0.817645714,2.96915912 0.817645714,2.74698286 L0.817645714,2.706 C0.817645714,1.80412571 1.12916571,1.08277714 1.89979429,0.590857143 C2.54508571,0.179017143 3.04090286,0.112011429 3.7048,0.100522252 C3.8125777,0.0988871956 3.9165229,0.140526055 3.99333109,0.216152581 C4.07013928,0.291779106 4.11338459,0.395066284 4.11337143,0.502857143 L4.11337143,1.27336 C4.11383944,1.47963074 3.95747928,1.65248137 3.75219429,1.67262857 C3.13870857,1.73083429 2.52296,1.96755429 2.52296,2.70587429 L2.52296,2.74685714 C2.52296,2.85354995 2.56534355,2.95587289 2.64078676,3.0313161 C2.71622996,3.10675931 2.81855291,3.14914286 2.92524571,3.14914286 L3.71234286,3.14914286 C3.81898821,3.14910928 3.9212661,3.19150215 3.99661678,3.26697075 C4.07196745,3.34243934 4.11420034,3.4447834 4.11400071,3.55142857 L4.11400071,4.30571429 C4.11420034,4.41235946 4.07196745,4.51470352 3.99661678,4.59017211 C3.9212661,4.6656407 3.81898821,4.70803358 3.71234286,4.708 L2.92524571,4.708 C2.70370754,4.70862291 2.52436748,4.88824398 2.52409143,5.10978286 Z" id="Path"></path>
                            <path d="M12.8461143,12.2343886 C12.623938,12.2343886 12.4438286,12.0542791 12.4438286,11.8321029 L12.4438286,10.824 L12.4110171,10.824 C11.7715086,11.9224914 10.5744571,12.4636914 9.32837714,12.4636914 C6.60628571,12.4636914 4.50748571,10.4632 4.50748571,7.72426286 C4.50748571,4.96961143 6.5736,2.90362286 9.32837714,2.90362286 C10.5416457,2.90362286 11.7386971,3.39554286 12.4110171,4.42853714 L12.4438286,4.42853714 L12.4438286,3.55193143 C12.4441753,3.33000068 12.6241833,3.15027401 12.8461143,3.15027429 L13.7478629,3.15027429 C13.8545082,3.15024071 13.9567861,3.19263358 14.0321368,3.26810218 C14.1074875,3.34357077 14.1497203,3.44591483 14.1495207,3.55256 L14.1495207,11.8332343 C14.1495207,12.0551653 13.9697936,12.2351732 13.7478629,12.23552 L12.8461143,12.2343886 Z M9.32888,4.46197714 C7.52513143,4.46197714 6.21342857,5.93786286 6.21342857,7.7088 C6.21342857,9.41398857 7.57441143,10.9060914 9.31241143,10.9060914 C10.1566909,10.903774 10.9652463,10.5651292 11.5591811,9.96508368 C12.153116,9.36503817 12.4834671,8.55305901 12.4771429,7.7088 C12.4771429,5.88858286 11.1816571,4.46197714 9.32888,4.46197714 Z" id="Shape"></path>
                            <path d="M16.3463771,1.69915429 L16.3463771,0.502228571 C16.3463771,0.280052306 16.5264866,0.0999428571 16.7486629,0.0999428571 L17.6502857,0.0999428571 C17.7569785,0.0999428571 17.8593015,0.142326409 17.9347447,0.217769615 C18.0101879,0.293212821 18.0525714,0.395535766 18.0525714,0.502228571 L18.0525714,1.69915429 C18.0525714,1.92133055 17.872462,2.10144 17.6502857,2.10144 L16.7485371,2.10144 C16.52641,2.10137059 16.3463771,1.92128147 16.3463771,1.69915429 L16.3463771,1.69915429 Z M16.3463767,11.8326057 L16.3463767,3.55193143 C16.3467239,3.33000068 16.5267318,3.15027429 16.7486629,3.15027429 L17.6502857,3.15027429 C17.7569785,3.15027429 17.8593015,3.19265784 17.9347447,3.26810104 C18.0101879,3.34354425 18.0525714,3.44586719 18.0525714,3.55256 L18.0525714,11.8332343 C18.0525714,12.0554106 17.872462,12.23552 17.6502857,12.23552 L16.7485371,12.23552 C16.6417571,12.23552 16.5393711,12.1930022 16.463937,12.1174266 C16.3885029,12.041851 16.3462103,11.9393856 16.3463767,11.8326057 L16.3463767,11.8326057 Z" id="Shape"></path>
                            <path d="M22.9541714,4.98670857 C22.1506057,5.39666286 21.9538629,6.44612571 21.9538629,7.26603429 L21.9538629,11.8326057 C21.9538629,12.054782 21.7737534,12.2348914 21.5515771,12.2348914 L20.6498286,12.2348914 C20.4276523,12.2348914 20.2475429,12.054782 20.2475429,11.8326057 L20.2475429,3.55193143 C20.2478896,3.33000068 20.4278975,3.15027401 20.6498286,3.15027429 L21.4368,3.15027429 C21.5434454,3.15024071 21.6457232,3.19263358 21.7210739,3.26810218 C21.7964246,3.34357077 21.8386575,3.44591483 21.8384571,3.55256 L21.8384571,3.97005714 L21.8712686,3.97005714 C22.3364114,3.31395429 22.9947771,3.03386286 23.7330971,2.93982857 C23.8473523,2.92609113 23.9620204,2.96194228 24.0481024,3.03831538 C24.1341844,3.11468849 24.1834089,3.22427053 24.1834089,3.33934857 L24.1834089,4.29377143 C24.1841759,4.48894595 24.0437728,4.65609 23.8513943,4.68901714 C23.5385541,4.74056112 23.2357754,4.84102068 22.9541714,4.98670857 Z" id="Path"></path>
                        </g>
                        <path d="M31.4317143,11.8402743 L31.4317143,14.7545829 C31.4317143,14.9459322 31.276595,15.1010514 31.0852457,15.1010514 L30.1495543,15.1010514 C29.958205,15.1010514 29.8030857,14.9459322 29.8030857,14.7545829 L29.8030857,3.47134857 C29.8030857,3.27999926 29.958205,3.12488 30.1495543,3.12488 L31.1017143,3.12488 C31.2930636,3.12488 31.4481829,3.27999926 31.4481829,3.47134857 L31.4481829,3.47134857 C31.4486306,3.60295197 31.5235474,3.722957 31.6415863,3.78115044 C31.7596252,3.83934388 31.900435,3.82569257 32.0050971,3.74590857 C32.2644767,3.55225204 32.5454906,3.38940655 32.84248,3.26065143 C33.3605398,3.03730906 33.9192875,2.92383016 34.4834286,2.92730195 C35.8488533,2.92730195 36.9812038,3.37995429 37.88048,4.28509714 C38.7797562,5.19024 39.2294362,6.32518857 39.2295652,7.68994286 C39.2321771,8.30637849 39.117718,8.91770871 38.8922286,9.49142857 C38.6705079,10.0568713 38.3408291,10.5737425 37.9215886,11.0132 C37.5024071,11.4649347 36.9940803,11.8248087 36.4287314,12.07008 C35.8422778,12.306439 35.2143103,12.4225504 34.5821143,12.41152 C33.9965311,12.4171291 33.415905,12.3037924 32.8754171,12.0783771 C32.5597486,11.9439732 32.2615201,11.7718322 31.9872457,11.5657143 C31.8826786,11.4863472 31.7422181,11.4729476 31.6245308,11.5311121 C31.5068435,11.5892767 31.4321757,11.708999 31.4317143,11.8402743 Z M31.3824343,7.59113143 C31.3657596,8.44295338 31.6900314,9.26614673 32.2831771,9.87774857 C32.8320507,10.4858813 33.6148487,10.830177 34.4340229,10.8237486 C36.1509995,10.8184793 37.5389806,9.42301448 37.5350171,7.70603429 C37.5574846,6.84746772 37.2308941,6.01647648 36.6298743,5.40294857 C36.0559724,4.79561724 35.2527562,4.45817517 34.4173029,4.47341714 C33.6166705,4.47341714 32.910701,4.7846019 32.2993943,5.40697143 C31.7087329,5.97960563 31.3775147,6.76859892 31.3824343,7.59125714 L31.3824343,7.59113143 Z" id="Shape"></path>
                        <path d="M42.06664,12.1727886 L40.9980686,12.1727886 C40.8432886,12.1727886 40.7177951,12.0473514 40.7177257,11.8925714 L40.7177257,3.40509714 C40.7177951,3.25031715 40.8432886,3.12487998 40.9980686,3.12488 L41.9674514,3.12488 C42.1222111,3.12488 42.2476686,3.25033749 42.2476686,3.40509714 L42.2476686,3.40509714 C42.2483286,3.51721845 42.3156438,3.61819364 42.4188857,3.66192859 C42.5221275,3.70566355 42.6414923,3.68376917 42.7224914,3.60624 C43.0915568,3.26009551 43.5646884,3.04565042 44.0682629,2.99627429 C44.1483949,2.98605801 44.2290653,3.01065269 44.2898679,3.06383694 C44.3506705,3.1170212 44.3857817,3.19370109 44.38632,3.27448 L44.38632,4.42715429 C44.3856667,4.56790688 44.2810105,4.6864779 44.1414286,4.70460571 C43.5388381,4.78590095 43.0981676,4.99261714 42.8194171,5.32475429 C42.5038743,5.70055619 42.3461867,6.30511619 42.3463543,7.13843429 L42.3463543,11.8925714 C42.3463545,12.0471349 42.2212032,12.1725112 42.06664,12.1727886 L42.06664,12.1727886 Z" id="Path"></path>
                        <path d="M46.6933029,2.06372578 L46.0617143,2.06372578 C45.790937,2.06372578 45.5714286,1.84421732 45.5714286,1.57344 L45.5714286,0.686777143 C45.5714286,0.41599982 45.790937,0.196491429 46.0617143,0.196491429 L46.6935543,0.196491429 C46.9643316,0.196491429 47.18384,0.41599982 47.18384,0.686777143 L47.18384,1.57356571 C47.1838067,1.70361936 47.1321025,1.82833127 47.0401053,1.92025772 C46.9481081,2.01218416 46.8233565,2.06379241 46.6933029,2.06372578 L46.6933029,2.06372578 Z M45.5714286,11.67232 L45.5714286,3.62534857 C45.5714286,3.34894741 45.795496,3.12488 46.0718971,3.12488 L46.68312,3.12488 C46.9595212,3.12488 47.1835886,3.34894741 47.1835886,3.62534857 L47.1835886,11.67232 C47.1835886,11.9487212 46.9595212,12.1727886 46.68312,12.1727886 L46.0717714,12.1727886 C45.7954194,12.1727886 45.5714286,11.9486721 45.5714286,11.67232 Z" id="Shape"></path>
                        <path d="M56.9639086,9.08826286 C57.1372778,9.08879497 57.2981969,9.17842064 57.3899244,9.32553703 C57.4816519,9.47265341 57.4913029,9.65659522 57.4154743,9.81250286 C57.1008318,10.5014087 56.6240261,11.1038644 56.0258286,11.5683543 C55.2799238,12.130381 54.3723924,12.4113943 53.3032343,12.4113943 C52.6744436,12.420183 52.0504121,12.3012445 51.4689371,12.0617829 C50.9057474,11.8184502 50.3988825,11.4614236 49.9801029,11.0130743 C49.5544873,10.563719 49.2181434,10.0375739 48.9889714,9.46264 C48.0169263,7.05452453 49.1185789,4.30843732 51.4854057,3.23978286 C52.0737564,2.98070608 52.7102927,2.84913152 53.3531429,2.85371429 C54.3229879,2.83243694 55.2722837,3.13486157 56.0510971,3.71322286 C56.6364899,4.1586262 57.1058827,4.73858608 57.4194971,5.40395429 C57.4956464,5.55991603 57.4859869,5.74412161 57.3939433,5.89126354 C57.3018997,6.03840547 57.1404847,6.12768147 56.9669257,6.12744 L56.2203086,6.12744 C56.044612,6.12687935 55.8819486,6.03465739 55.7912457,5.88418286 C55.5547314,5.478002 55.2231593,5.13529985 54.8250057,4.88550857 C54.3363767,4.60102209 53.7780424,4.45856499 53.2128457,4.47417143 C52.4283379,4.46453063 51.6787555,4.79804059 51.1606857,5.38723429 C50.596798,6.00000196 50.2942858,6.80862556 50.31752,7.64104 C50.31752,8.54618286 50.6024724,9.30017524 51.1723771,9.90301714 C51.7196254,10.4966468 52.4956733,10.8263538 53.3028571,10.80816 C53.8512231,10.8145333 54.3892218,10.6585574 54.8491429,10.3598629 C55.241219,10.1029446 55.5652427,9.7548951 55.7935086,9.34547429 C55.8824625,9.18775774 56.0491693,9.08986426 56.23024,9.08901714 L56.9639086,9.08826286 Z" id="Path"></path>
                        <path d="M60.8608,8.24924571 C60.7804204,8.24974624 60.7049303,8.28792237 60.6568876,8.3523663 C60.6088449,8.41681023 60.5938137,8.5000583 60.6162857,8.57723429 C60.7722378,9.16535428 61.1033504,9.69214433 61.56568,10.0876914 C62.1050028,10.5543206 62.7979478,10.8048269 63.5109829,10.7909371 C64.0262911,10.7968144 64.5335999,10.6632435 64.9792,10.4043657 C65.3822667,10.1684361 65.7201517,9.83573609 65.9622857,9.43636571 C66.0086358,9.35916674 66.091743,9.31156814 66.1817829,9.31065143 L67.4756343,9.31065143 C67.5631767,9.31059545 67.6446445,9.35539314 67.6914904,9.42934684 C67.7383362,9.50330054 67.7440281,9.59609838 67.7065714,9.67522286 C67.3520132,10.4454792 66.8068245,11.1125565 66.1225714,11.61336 C65.3589398,12.1500721 64.444181,12.4295549 63.5109829,12.4112686 C62.8818825,12.4190126 62.2577864,12.2986503 61.6766857,12.0575086 C61.1073805,11.8110203 60.5949937,11.449829 60.1715086,10.99648 C59.7458083,10.5471909 59.4094535,10.0210287 59.1803771,9.44604571 C58.9449922,8.87315201 58.8234267,8.2599016 58.8224686,7.64053714 C58.8175888,7.03034987 58.9278396,6.42471668 59.14744,5.85539429 C59.3682233,5.29483177 59.6933728,4.78125598 60.1056343,4.34192 C60.9575871,3.3759156 62.1902121,2.83197258 63.4780457,2.85371429 C64.2520561,2.84840852 65.0147729,3.03945539 65.6948914,3.40899429 C66.377266,3.77889296 66.9578328,4.31144262 67.38512,4.95942857 C67.650732,5.37640996 67.8479139,5.83320483 67.9691886,6.31249143 C68.1020245,6.8631481 68.1653746,7.42827321 68.15776,7.99467429 L68.15776,7.99467429 C68.15776,8.06231264 68.1308822,8.12717886 68.0830429,8.17499461 C68.0352035,8.22281036 67.9703241,8.24965621 67.9026857,8.24962286 L60.8608,8.24924571 Z M66.0984343,6.78517714 C66.1640707,6.78502433 66.2256257,6.75330445 66.2638421,6.69994096 C66.3020586,6.64657746 66.3122693,6.57808723 66.29128,6.51589714 C66.1130675,5.94638335 65.7766083,5.43927474 65.3211429,5.05371429 C64.8152571,4.64278499 64.1795276,4.42551202 63.5279543,4.44085714 C62.8550625,4.42714745 62.1986703,4.64984481 61.67304,5.07018286 C61.2090405,5.44639541 60.8627384,5.94785063 60.6752457,6.51501714 C60.6538105,6.57723585 60.6637404,6.64597627 60.7019077,6.69958503 C60.7400749,6.75319379 60.8017811,6.7850717 60.8675886,6.78517714 L66.0984343,6.78517714 Z" id="Shape"></path>
                    </g>
                    <path d="M6.46900571,13.6349714 C5.70893714,13.54232 5.09406857,12.7856457 5.01876571,11.8498286 C4.91693714,10.5853943 5.77305143,9.53140571 6.80038857,9.65674286 C7.56058286,9.74952 8.17532571,10.5061943 8.25050286,11.4418857 C8.35233143,12.7061943 7.49621714,13.7600571 6.46900571,13.6349714 Z M25.57192,13.6349714 C24.8006629,13.54232 24.1764914,12.7856457 24.1010629,11.8498286 C23.9972229,10.5851429 24.8662857,9.53165714 25.90808,9.65699429 C26.6793371,9.74977143 27.3035086,10.5064457 27.3789371,11.4421371 C27.4825257,12.7061943 26.6137143,13.7600571 25.57192,13.6349714 Z" id="Shape" fill="#00CCC4"></path>
                    <rect id="Rectangle" fill="#00CCC4" x="9.53618286" y="12.0073486" width="13.2" height="1.63428571" rx="0.817142857"></rect>
                </g>
            </g>
        </g>
    </g>
</svg>