<?xml version="1.0" encoding="UTF-8"?>
<svg width="122px" height="22px" viewBox="0 0 122 22" version="1.1" xmlns="http://www.w3.org/2000/svg" xmlns:xlink="http://www.w3.org/1999/xlink">
    <title>Asset 36</title>
    <g id="Explorations" stroke="none" stroke-width="1" fill="none" fill-rule="evenodd">
        <g id="BLT-439-Deal-Rating-Concept-Final" transform="translate(-354.000000, -660.000000)" fill="#007EE5" fill-rule="nonzero">
            <g id="Group-3" transform="translate(354.000000, 660.000000)">
                <g id="Asset-36" transform="translate(-0.000000, 0.000000)">
                    <g id="Group" transform="translate(36.457143, 3.771429)">
                        <path d="M4.90977143,15.7460914 C3.10690286,15.7460914 1.54766857,14.8929943 0.675085714,13.3591543 C0.618628919,13.2589516 0.61957836,13.1363173 0.677579844,13.0370008 C0.735581327,12.9376843 0.841924342,12.8766005 0.956937143,12.8765371 L2.17284571,12.8765371 C2.27495519,12.8776433 2.37076717,12.9260834 2.43219429,13.0076571 C3.04731429,13.8041829 3.88331429,14.18824 4.92624,14.18824 C6.99235429,14.18824 8.12365714,13.0568114 8.12365714,10.97448 L8.09084571,10.97448 C7.36949714,11.9746629 6.15597714,12.4010857 4.95905143,12.4010857 C2.35186286,12.4010857 0.105474286,10.2201943 0.105474286,7.59666286 C0.110763164,6.89006727 0.27910773,6.19423159 0.597394286,5.56336 C1.43314286,3.82536 3.05699429,2.84114286 4.99186286,2.84114286 C5.93138711,2.84114286 6.84782987,3.13227019 7.61526857,3.67425143 C7.7137078,3.74405985 7.84291198,3.75298156 7.9500119,3.69736587 C8.05711183,3.64175019 8.12413539,3.5309298 8.12365714,3.41025143 L8.12365714,3.41025143 C8.12365714,3.23195498 8.26819498,3.08741714 8.44649143,3.08741714 L9.50613714,3.08741714 C9.6844336,3.08741714 9.82897143,3.23195498 9.82897143,3.41025143 L9.82897143,10.9416686 C9.82897143,14.0079657 7.92691429,15.7460914 4.90977143,15.7460914 Z M6.15597714,4.64552 C5.77563716,4.49023877 5.36980333,4.4068214 4.95905143,4.39949714 C3.18811429,4.39949714 1.81078857,5.87538286 1.81078857,7.63035429 C1.81078857,9.35264 3.20458286,10.8441143 4.94258286,10.8441143 C6.27088,10.8441143 7.30374857,10.1062971 7.82848,8.90924571 C8.01505221,8.5137396 8.11565627,8.08317307 8.12365714,7.64594286 C8.12365714,6.25214857 7.46742857,5.15340571 6.15597714,4.64514286 L6.15597714,4.64552 Z" id="Shape"></path>
                        <path d="M13.8950743,4.92385143 C13.0915086,5.33380571 12.8947657,6.38326857 12.8947657,7.20317714 L12.8947657,11.8485714 C12.8947658,11.9342911 12.860688,12.0164945 12.8000396,12.0770721 C12.7393913,12.1376497 12.6571482,12.1716315 12.5714286,12.1715316 L11.5120343,12.1715316 C11.3337175,12.1715316 11.1892,12.0268882 11.1892,11.8485714 L11.1892,3.41025143 C11.1892,3.23195498 11.3337378,3.08741714 11.5120343,3.08741714 L12.4566514,3.08741714 C12.6349682,3.08741713 12.779542,3.23193464 12.7796114,3.41025143 L12.7796114,3.9072 L12.8124229,3.9072 C13.2957943,3.22507429 13.98848,2.94938286 14.7626286,2.86666286 C14.8543179,2.85612101 14.9461613,2.88509384 15.0152043,2.94634018 C15.0842474,3.00758651 15.1239664,3.09531929 15.1244343,3.18761143 L15.1244343,4.29842286 C15.1238544,4.45987773 15.004436,4.59624106 14.8444686,4.61811429 C14.5132929,4.66690478 14.1924862,4.77021541 13.8950743,4.92385143 L13.8950743,4.92385143 Z" id="Path"></path>
                        <path d="M24.6195086,8.36741714 L17.82704,8.36741714 C17.7206606,8.36736085 17.6210488,8.41959401 17.5605998,8.50712964 C17.5001508,8.59466527 17.4865871,8.70632029 17.52432,8.80578286 C17.9802857,9.99265143 19.0386743,10.8432343 20.3717486,10.8432343 C21.3875364,10.849968 22.3347155,10.3314275 22.8763543,9.47206857 C22.9345535,9.37637728 23.0385376,9.31806798 23.1505371,9.31832 L24.1766171,9.31832 C24.2884431,9.31849858 24.3922707,9.37633605 24.4512831,9.47132351 C24.5102955,9.56631097 24.5161481,9.68501684 24.4667657,9.78534857 C23.699704,11.3863057 22.0808522,12.4039325 20.3056229,12.4010917 C17.7149029,12.4010917 15.6816,10.1546971 15.6816,7.61313143 C15.6816,4.9896 17.6820914,2.84152 20.3384343,2.84152 C22.9053871,2.85599235 24.9750719,4.94773516 24.9623899,7.51469714 C24.9623899,7.69509714 24.9555429,7.88241143 24.94184,8.06784 C24.9291627,8.23657426 24.7887181,8.36710446 24.6195086,8.36741714 Z M20.3224686,4.39912 C18.9773257,4.39912 17.7268457,5.36712 17.4421029,6.66876571 C17.4225883,6.76381895 17.4469861,6.86260364 17.5085098,6.93764208 C17.5700335,7.01268053 17.6621199,7.05596766 17.7591543,7.05546722 L22.8857829,7.05546722 C22.9828173,7.05596766 23.0749036,7.01268053 23.1364273,6.93764208 C23.197951,6.86260364 23.2223488,6.76381895 23.2028343,6.66876571 C22.9177143,5.36699429 21.6681143,4.39912 20.3224686,4.39912 Z" id="Shape"></path>
                        <path d="M34.28744,12.1715314 C34.1091232,12.171462 33.9646057,12.0268882 33.9646057,11.8485714 L33.9646057,10.7611429 L33.9317943,10.7611429 C33.2922857,11.8596343 32.0951086,12.4008343 30.8490286,12.4008343 C28.1270629,12.4008343 26.0282629,10.4003429 26.0282629,7.66140571 C26.0282629,4.90675429 28.0942514,2.84076571 30.8490286,2.84076571 C32.0624229,2.84076571 33.2593486,3.33268571 33.9317943,4.36568 L33.9646057,4.36568 L33.9646057,3.41025143 C33.9646057,3.23195498 34.1091435,3.08741714 34.28744,3.08741714 L35.34696,3.08741714 C35.5252565,3.08741714 35.6697943,3.23195498 35.6697943,3.41025143 L35.6697943,11.8485714 C35.6697943,12.0268882 35.5252768,12.171462 35.34696,12.1715314 L34.28744,12.1715314 Z M30.8490286,4.39912 C29.0454057,4.39912 27.7335771,5.87500571 27.7335771,7.64594286 C27.7335771,9.35113143 29.09456,10.8432343 30.8326857,10.8432343 C31.6769434,10.8408834 32.4854664,10.502224 33.0793741,9.90218209 C33.6732817,9.30214022 34.0036156,8.49018014 33.9972914,7.64594286 C33.9972914,5.82572571 32.7019314,4.39912 30.8490286,4.39912 Z" id="Shape"></path>
                        <path d="M39.6864914,4.96810286 L39.6864914,11.8485714 C39.6864914,12.0268882 39.5419739,12.1715314 39.3636571,12.1715314 L38.3040114,12.1715314 C38.1256946,12.1715314 37.9811771,12.0268882 37.9811771,11.8485714 L37.9811771,4.96810286 C37.9811771,4.78973697 37.836583,4.64514286 37.6582171,4.64514286 L37.0742743,4.64514286 C36.8959778,4.64514286 36.75144,4.50060502 36.75144,4.32230857 L36.75144,3.41025143 C36.75144,3.23195498 36.8959778,3.08741714 37.0742743,3.08741714 L37.6582171,3.08741714 C37.836583,3.08741714 37.9811771,2.94282303 37.9811771,2.76445714 L37.9811771,0.360548571 C37.9811771,0.182231772 38.1256946,0.0375885714 38.3040114,0.0375885714 L39.3636571,0.0375885714 C39.5419739,0.0375885714 39.6864914,0.182231772 39.6864914,0.360548571 L39.6864914,2.76445714 C39.6864914,2.94282303 39.8310855,3.08741714 40.0094514,3.08741714 L40.85576,3.08741714 C41.0340565,3.08741714 41.1785943,3.23195498 41.1785943,3.41025143 L41.1785943,4.32230857 C41.1785943,4.50060502 41.0340565,4.64514286 40.85576,4.64514286 L40.0094514,4.64514286 C39.9237971,4.64514286 39.841651,4.6791689 39.7810842,4.73973565 C39.7205175,4.8003024 39.6864914,4.88244854 39.6864914,4.96810286 Z" id="Path"></path>
                        <path d="M48.1096,11.9031314 L48.1096,14.81744 C48.1096,15.0087893 47.9544807,15.1639086 47.7631314,15.1639086 L46.82744,15.1639086 C46.6360907,15.1639086 46.4809714,15.0087893 46.4809714,14.81744 L46.4809714,3.53420571 C46.4809714,3.34285641 46.6360907,3.18773714 46.82744,3.18773714 L47.7796,3.18773714 C47.9709493,3.18773714 48.1260686,3.34285641 48.1260686,3.53420571 L48.1260686,3.53420571 C48.1265163,3.66580912 48.2014332,3.78581414 48.319472,3.84400758 C48.4375109,3.90220102 48.5783207,3.88854971 48.6829829,3.80876571 C48.9423624,3.61510919 49.2233763,3.4522637 49.5203657,3.32350857 C50.0384255,3.10016621 50.5971732,2.9866873 51.1613143,2.99015909 C52.5266552,2.99015909 53.6590057,3.44281143 54.5583657,4.34795429 C55.4577257,5.25309714 55.9073245,6.38821333 55.9073245,7.75330286 C55.9099165,8.36956168 55.7955011,8.9807156 55.5701143,9.55428571 C55.3483937,10.1197285 55.0187148,10.6365996 54.5994743,11.0760571 C54.1802928,11.5277919 53.671966,11.8876659 53.1066171,12.1329371 C52.5201635,12.3692962 51.892196,12.4854075 51.26,12.4743771 C50.6744168,12.4799863 50.0937907,12.3666495 49.5533029,12.1412343 C49.2376095,12.0066725 48.9393798,11.8343621 48.6651314,11.6280686 C48.5604922,11.5486476 48.4199179,11.5352891 48.3021922,11.5935791 C48.1844665,11.6518692 48.1098714,11.7717655 48.1096,11.9031314 L48.1096,11.9031314 Z M48.06032,7.65398857 C48.0436453,8.50581052 48.3679171,9.32900388 48.9610629,9.94060571 C49.5099364,10.5487384 50.2927344,10.8930341 51.1119086,10.8866057 C52.8288853,10.8813364 54.2168663,9.48587162 54.2129029,7.76889143 C54.2353703,6.91032487 53.9087798,6.07933362 53.30776,5.46580571 C52.7338581,4.85847439 51.930642,4.52103231 51.0951886,4.53627429 C50.2945562,4.53627429 49.5885448,4.84745905 48.9771543,5.46982857 C48.3866316,6.04252665 48.055553,6.83151177 48.0605714,7.65411429 L48.06032,7.65398857 Z" id="Shape"></path>
                        <path d="M58.7445257,12.2356457 L57.6759543,12.2356457 C57.5211743,12.2356457 57.3956808,12.1102086 57.3956114,11.9554286 L57.3956114,3.46795429 C57.3956808,3.3131743 57.5211743,3.18773713 57.6759543,3.18773714 L58.6457143,3.18773714 C58.7200325,3.18773714 58.7913068,3.21725994 58.8438577,3.26981084 C58.8964086,3.32236175 58.9259314,3.39363608 58.9259314,3.46795429 L58.9259314,3.46795429 C58.9265914,3.58007559 58.9939067,3.68105078 59.0971485,3.72478574 C59.2003903,3.7685207 59.3197552,3.74662631 59.4007543,3.66909714 C59.7696534,3.3230781 60.242544,3.10864211 60.7458971,3.05913143 C60.8260493,3.04887606 60.9067544,3.07345292 60.9675862,3.12664164 C61.0284179,3.17983036 61.0635462,3.25653333 61.06408,3.33733714 L61.06408,4.49001143 C61.0634267,4.63076403 60.9587705,4.74933504 60.8191886,4.76746286 C60.2165981,4.8487581 59.7759276,5.05547429 59.4971771,5.38761143 C59.1816343,5.76341333 59.0239467,6.36797333 59.0241143,7.20129143 L59.0241143,11.9554286 C59.0241147,12.1099431 58.8990398,12.2352991 58.7445257,12.2356457 Z" id="Path"></path>
                        <path d="M63.3711886,2.12658286 L62.7393486,2.12658286 C62.4685712,2.12658286 62.2490629,1.90707447 62.2490629,1.63629714 L62.2490629,0.749634286 C62.2490629,0.478856963 62.4685712,0.259348571 62.7393486,0.259348571 L63.3711886,0.259348571 C63.6419659,0.259348571 63.8614743,0.478856963 63.8614743,0.749634286 L63.8614743,1.63642286 C63.8614049,1.90715108 63.6419168,2.12658286 63.3711886,2.12658286 L63.3711886,2.12658286 Z M62.2491886,11.7351771 L62.2491886,3.68820571 C62.2491886,3.41180455 62.473256,3.18773714 62.7496571,3.18773714 L63.36088,3.18773714 C63.6372812,3.18773714 63.8613486,3.41180455 63.8613486,3.68820571 L63.8613486,11.7351771 C63.8613486,12.0115783 63.6372812,12.2356457 63.36088,12.2356457 L62.7496571,12.2356457 C62.473256,12.2356457 62.2491886,12.0115783 62.2491886,11.7351771 Z" id="Shape"></path>
                        <path d="M73.6417943,9.15112 C73.8151635,9.15165211 73.9760826,9.24127778 74.0678101,9.38839417 C74.1595376,9.53551055 74.1691886,9.71945237 74.09336,9.87536 C73.7787175,10.5642658 73.3019118,11.1667215 72.7037143,11.6312114 C71.9578095,12.1933219 71.0502781,12.4743352 69.98112,12.4742514 C69.3523281,12.4830541 68.7282938,12.3641151 68.1468229,12.12464 C67.5836331,11.8813073 67.0767682,11.5242807 66.6579886,11.0759314 C66.232373,10.6265762 65.8960292,10.100431 65.6668571,9.52549714 C64.694812,7.11738168 65.7964646,4.37129447 68.1632914,3.30264 C68.7514485,3.04365014 69.3877615,2.91207748 70.0304,2.91657143 C71.0002423,2.89531331 71.949532,3.19773601 72.7283543,3.77608 C73.3137471,4.22148334 73.7831399,4.80144322 74.0967543,5.46681143 C74.1729035,5.62277318 74.163244,5.80697875 74.0712004,5.95412069 C73.9791568,6.10126262 73.8177418,6.19053862 73.6441829,6.19029714 L72.8975657,6.19029714 C72.7218691,6.18973649 72.5592058,6.09751453 72.4685029,5.94704 C72.2319885,5.54085914 71.9004164,5.19815699 71.5022629,4.94836571 C71.0136338,4.66387923 70.4552996,4.52142214 69.8901029,4.53702857 C69.1055915,4.52737087 68.3560024,4.86088383 67.8379429,5.45009143 C67.2740551,6.0628591 66.9715429,6.8714827 66.9947771,7.70389714 C66.9947771,8.60904 67.2797295,9.36303238 67.8496343,9.96587429 C68.3968825,10.5595039 69.1729305,10.8892109 69.9801143,10.8710171 C70.5284833,10.877413 71.0664884,10.7214353 71.5264,10.42272 C71.9185447,10.1658443 72.2426186,9.81778733 72.4708914,9.40833143 C72.5598453,9.25061489 72.7265522,9.1527214 72.9076229,9.15187429 L73.6417943,9.15112 Z" id="Path"></path>
                        <path d="M77.5386857,8.31210286 C77.4583062,8.31260338 77.382816,8.35077951 77.3347733,8.41522344 C77.2867306,8.47966738 77.2716994,8.56291545 77.2941714,8.64009143 C77.4501235,9.22821142 77.7812361,9.75500147 78.2435657,10.1505486 C78.7828885,10.6171777 79.4758336,10.867684 80.1888686,10.8537943 C80.7041768,10.8596715 81.2114857,10.7261006 81.6570857,10.4672229 C82.0601525,10.2312932 82.3980374,9.89859323 82.6401714,9.49922286 C82.6865216,9.42202389 82.7696287,9.37442528 82.8596686,9.37350857 L84.1531429,9.37350857 C84.2406853,9.37345259 84.3221531,9.41825028 84.3689989,9.49220398 C84.4158448,9.56615768 84.4215366,9.65895552 84.38408,9.73808 C84.0295217,10.5083364 83.4843331,11.1754136 82.80008,11.6762171 C82.0364406,12.2129134 81.1216871,12.4923945 80.1884914,12.4741257 C79.559391,12.4818697 78.9352949,12.3615074 78.3541943,12.1203657 C77.7848688,11.8738483 77.2724465,11.512662 76.8488914,11.0593371 C76.4232724,10.610009 76.0869655,10.0838548 75.8578857,9.50890286 C75.6225008,8.93600915 75.5009353,8.32275875 75.4999771,7.70339429 C75.4950973,7.09320701 75.6053482,6.48757382 75.8249486,5.91825143 C76.0457319,5.35768891 76.3708814,4.84411312 76.7831429,4.40477714 C77.635067,3.43880648 78.8676386,2.89486675 80.1554286,2.91657143 C80.9294369,2.91128211 81.6921498,3.10232797 82.3722743,3.47185143 C83.0546489,3.8417501 83.6352157,4.37429977 84.0625029,5.02228571 C84.3281148,5.4392671 84.5252967,5.89606197 84.6465714,6.37534857 C84.7794074,6.92600524 84.8427575,7.49113035 84.8351429,8.05753143 L84.8351429,8.05753143 C84.8351429,8.12516978 84.808265,8.19003601 84.7604257,8.23785175 C84.7125864,8.2856675 84.6477069,8.31251335 84.5800686,8.31248 L77.5386857,8.31210286 Z M82.77632,6.84803429 C82.8419351,6.84782541 82.9034511,6.81609238 82.9416552,6.76274606 C82.9798315,6.70939975 82.9900951,6.64094227 82.9691657,6.57875429 C82.7908171,6.00914793 82.454128,5.50202133 81.9984,5.11657143 C81.4926957,4.70566743 80.8571313,4.48838999 80.2057143,4.50371429 C79.5328225,4.49000459 78.8764303,4.71270196 78.3508,5.13304 C77.886477,5.50916075 77.5398269,6.01061445 77.352,6.57787429 C77.3306183,6.64011211 77.3405881,6.70884323 77.3787722,6.76244074 C77.4169564,6.81603824 77.4786605,6.84791262 77.5444686,6.84803429 L82.77632,6.84803429 Z" id="Shape"></path>
                    </g>
                    <path d="M32.5556,6.24020571 C32.5379383,5.77327123 32.1458561,5.40862469 31.6788686,5.42482286 L29.8147771,5.47624 C29.4005591,5.49166715 29.0586168,5.80512758 29.0073143,6.21644571 C28.9942522,6.30886766 28.9753148,6.40036347 28.9506171,6.49037714 L28.7409257,6.07552 C27.9807314,4.66890286 26.9424571,2.97779429 25.8991543,1.91286857 L25.8999086,1.91286857 C25.8999086,1.91286857 24.9830743,0.787725714 23.1456343,0.415611429 C23.1421143,0.414731429 23.1389714,0.414228571 23.1354514,0.4136 C21.5348571,0.0724114286 18.9277943,-0.0155885714 16.3731543,0.00213714286 C13.8185143,-0.0155885714 11.2114514,0.0724114286 9.61085714,0.414857143 C9.60733714,0.414857143 9.60419429,0.415988571 9.60054857,0.416868571 C7.76310857,0.788982857 6.84627429,1.91412571 6.84627429,1.91412571 L6.84715429,1.91412571 C5.80372571,2.97905143 4.76557714,4.67016 4.00525714,6.07677714 L3.76979429,6.54192 C3.73805696,6.43547789 3.71410799,6.32686723 3.69813714,6.21694857 C3.64683461,5.80563044 3.3048923,5.49217001 2.89067429,5.47674286 L1.02658286,5.42482286 C0.559595313,5.40862469 0.167513136,5.77327123 0.149851429,6.24020571 L0.125714286,7.14886857 C0.109153416,7.61585867 0.473413705,8.00828167 0.940342857,8.02648 L2.92097143,8.25628571 L2.94536,8.21656 C2.93077714,8.25 2.91682286,8.28230857 2.90475429,8.31084571 C2.25028571,9.06161143 1.85202286,9.94136 1.73485714,10.6454857 C1.52114286,11.3772686 1.40070857,12.3091886 1.40070857,13.5017143 C1.40070857,15.2114286 1.86710857,17.5443086 1.97899429,18.6811429 L1.97899429,20.3776571 C1.97899429,21.2197052 2.6616091,21.90232 3.50365714,21.90232 L5.69234286,21.90232 C6.07451337,21.90232 6.44102751,21.7504862 6.71123929,21.4802272 C6.98145108,21.2099683 7.13322098,20.8434277 7.13315429,20.4612571 L7.13315429,19.1211429 C9.2972,18.9218857 12.8266286,18.8541257 16.3731543,18.8480914 C19.9195543,18.8541257 23.4491086,18.9218857 25.6131543,19.1211429 L25.6131543,20.4612571 C25.6131543,21.2568971 26.2580743,21.9019297 27.0537143,21.9020686 L29.2424,21.9020686 C29.6467875,21.90232 30.0346238,21.741483 30.3205807,21.4555496 C30.6065377,21.1696162 30.7671886,20.7817932 30.7671886,20.3774057 L30.7671886,18.6811429 C30.8792,17.54456 31.3454743,15.2123086 31.3454743,13.5017143 C31.3454743,10.85304 30.3623886,8.98517714 29.8405486,8.31084571 C29.8332571,8.29324571 29.8239543,8.27212571 29.8154057,8.25264 L31.7639771,8.02635429 C32.2309063,8.00815596 32.5951666,7.61573295 32.5786057,7.14874286 L32.5556,6.24020571 Z" id="Path" opacity="0.15"></path>
                    <path d="M6.87305143,12.9435429 C5.82755632,12.8361035 5.04384334,11.9373674 5.07969211,10.8869779 C5.11554087,9.83658844 5.95870483,8.99337614 7.00909228,8.95746716 C8.05947972,8.92155818 8.95826067,9.70521963 9.06576,10.7507086 C9.12480446,11.3484182 8.91283741,11.9411244 8.48814793,12.3658382 C8.06345845,12.790552 7.4707644,13.002553 6.87305143,12.9435429 Z M26.7046057,12.9435429 C25.6591106,12.8361035 24.8753976,11.9373674 24.9112464,10.8869779 C24.9470952,9.83658844 25.7902591,8.99337614 26.8406466,8.95746716 C27.891034,8.92155818 28.789815,9.70521963 28.8973143,10.7507086 C28.9563587,11.3484182 28.7443917,11.9411244 28.3197022,12.3658382 C27.8950127,12.790552 27.3023187,13.002553 26.7046057,12.9435429 L26.7046057,12.9435429 Z M18.0103314,14.4338857 C17.6684301,14.4979859 17.3222088,14.5363942 16.9745714,14.5487886 C16.6269341,14.5363942 16.2807128,14.4979859 15.9388114,14.4338857 C13.5179205,13.9674598 11.5164949,12.2704 10.6605714,9.95833143 C11.8674286,11.3307543 14.2719657,12.04192 16.9740686,12.0723429 C19.6761714,12.04192 22.0812114,11.3306286 23.28744,9.95833143 C22.4317631,12.2701289 20.4308159,13.9671468 18.0103314,14.4338857 Z" id="Shape"></path>
                </g>
            </g>
        </g>
    </g>
</svg>