<?xml version="1.0" encoding="utf-8"?>
<!-- Generator: Adobe Illustrator 25.3.1, SVG Export Plug-In . SVG Version: 6.00 Build 0)  -->
<svg version="1.1" id="Layer_1" xmlns="http://www.w3.org/2000/svg" xmlns:xlink="http://www.w3.org/1999/xlink" x="0px" y="0px"
	 viewBox="0 0 403.8 30.1" style="enable-background:new 0 0 403.8 30.1;" xml:space="preserve">
<style type="text/css">
	.st0{fill:#413939;}
	.st1{fill:#1D79B5;}
	.st2{fill:#007EE5;}
</style>
<path class="st0" d="M60,10.9h0.1c2.4,0,4.5,1.7,4.9,4.1H55C55.4,12.6,57.5,10.8,60,10.9 M60,8.1c-4.7,0-8.4,3.8-8.4,8.5
	c0,4.7,3.8,8.4,8.5,8.4c1.6,0,3.2-0.5,4.5-1.3c1-0.7,1.9-1.6,2.5-2.6c0.2-0.3,0.2-0.7,0-1c-0.2-0.3-0.5-0.5-0.9-0.5h-1.2
	c-0.3,0-0.7,0.2-0.8,0.5c-0.9,1.4-2.5,2.3-4.2,2.2c-2.6,0.1-4.9-1.9-5.1-4.5h12.5c0.5,0,1-0.4,1-1c0.1-2.3-0.8-4.6-2.5-6.2
	C64.3,8.9,62.2,8.1,60,8.1"/>
<path class="st0" d="M84.3,16.4c0.1,1.4-0.5,2.8-1.5,3.9c-1,1-2.4,1.6-3.8,1.6c-2.9,0.1-5.3-2.2-5.4-5.1c0-0.1,0-0.2,0-0.3v0
	c0-3,2.5-5.4,5.4-5.4c1.4,0,2.7,0.6,3.7,1.5C83.8,13.7,84.4,15,84.3,16.4 M86.4,2.9h-1.3c-0.5,0-1,0.4-1,1v6.9
	C82.8,9,80.7,8,78.5,8.1c-4.5,0-8.1,3.6-8.1,8.1c0,0.1,0,0.2,0,0.4c0,4.9,3.4,8.5,8.2,8.5c2.3,0.1,4.5-0.9,5.7-2.9v1.4
	c0,0.5,0.4,1,1,1h1.2c0.5,0,1-0.4,1-1V3.9C87.4,3.3,87,2.9,86.4,2.9"/>
<path class="st0" d="M109.2,8.1c-1.6,0-3.1,0.6-4.2,1.7c-0.4,0.4-0.8,0.9-1,1.4l0,0c-0.2-0.5-0.5-0.9-0.9-1.3
	c-1.1-1.1-2.6-1.8-4.1-1.7c-1.8,0-3.6,0.8-4.6,2.3V9.5c0-0.5-0.4-1-1-1h-1.1c-0.5,0-1,0.4-1,1v14c0,0.5,0.4,1,1,1h1.3
	c0.5,0,1-0.4,1-1v-7.7c-0.1-1.1,0.2-2.2,0.8-3.1c1.1-1.6,3.3-1.9,4.9-0.8c0.3,0.2,0.6,0.5,0.8,0.8c0.5,0.9,0.7,2,0.6,3v7.8
	c0,0.5,0.4,1,1,1h1.3c0.5,0,1-0.4,1-1v-7.8c-0.1-1.1,0.1-2.2,0.7-3.1c0.7-1,1.8-1.5,2.9-1.4c1.1-0.1,2.1,0.4,2.7,1.2
	c0.6,1,0.9,2.2,0.8,3.4v7.7c0,0.5,0.4,1,1,1h1.3c0.5,0,1-0.4,1-1v-7.8c0-3.2-0.4-4.6-1.8-6C112.4,8.6,110.8,8,109.2,8.1"/>
<path class="st0" d="M132.2,8.5h-1.3c-0.5,0-1,0.4-1,1v7.9c0,2.8-1.5,4.4-4.2,4.5c-2.7,0-4.1-1.6-4.1-4.7V9.5c0-0.5-0.4-1-1-1h-1.3
	c-0.5,0-1,0.4-1,1v8.3c0,6.1,4.1,7.1,6.5,7.1h0.1c2,0.1,4-0.8,5.1-2.5v1c0,0.5,0.4,1,1,1h1.1c0.5,0,1-0.4,1-1v-14
	C133.2,9,132.7,8.5,132.2,8.5"/>
<path class="st0" d="M145.1,8.1c-2-0.2-4,0.8-5.2,2.5v-1c0-0.5-0.4-1-1-1h-1.1c-0.5,0-1,0.4-1,1v14c0,0.5,0.4,1,1,1h1.3
	c0.5,0,1-0.4,1-1v-7.9c0-2.8,1.5-4.4,4.2-4.5c1-0.1,2.1,0.3,2.8,1c0.9,1,1.3,2.4,1.2,3.7v7.7c0,0.5,0.4,1,1,1h1.3c0.5,0,1-0.4,1-1
	v-8.3C151.6,9.1,147.5,8.1,145.1,8.1"/>
<path class="st0" d="M168.3,16.4c0.1,1.4-0.5,2.8-1.5,3.9c-1,1-2.4,1.6-3.8,1.6c-2.9,0.1-5.3-2.2-5.4-5.1c0-0.1,0-0.2,0-0.3v0
	c0-3,2.5-5.4,5.4-5.4c1.4,0,2.7,0.6,3.7,1.5C167.7,13.7,168.3,15,168.3,16.4 M170.4,2.9h-1.3c-0.5,0-1,0.4-1,1v6.9
	c-1.3-1.8-3.5-2.8-5.7-2.7c-4.5,0-8.1,3.6-8.1,8.1c0,0.1,0,0.2,0,0.4c0,4.9,3.4,8.5,8.2,8.5c2.3,0.1,4.5-0.9,5.7-2.9v1.4
	c0,0.5,0.4,1,1,1h1.2c0.5,0,1-0.4,1-1V3.9C171.4,3.3,170.9,2.9,170.4,2.9"/>
<path class="st0" d="M180.6,14.9L180.6,14.9c-1.7-0.5-2.8-1-2.8-2.2c0-0.5,0.2-0.9,0.5-1.3c0.4-0.4,1-0.6,1.6-0.6h0.1
	c0.9-0.1,1.8,0.5,2,1.4c0.1,0.4,0.5,0.7,1,0.7h1.2c0.5,0,1-0.4,1-1c0-0.1,0-0.2,0-0.2c-0.7-2.6-3.1-3.6-5.2-3.6
	c-3.1,0-5.4,2.1-5.4,4.9c0,2.6,2.2,3.6,4,4.2c2.8,0.9,3.9,1.4,3.9,2.9c-0.1,1.3-1.1,2.3-2.4,2.2c0,0,0,0,0,0
	c-1.2,0.1-2.2-0.7-2.5-1.8c-0.1-0.4-0.5-0.7-1-0.8h-1.3c-0.6,0-1,0.5-1,1c0,0.1,0,0.1,0,0.2c0.6,2.8,3.3,4,5.7,4
	c1.6,0,3.2-0.6,4.3-1.7c0.9-0.9,1.4-2.2,1.4-3.6C185.6,16.3,183,15.5,180.6,14.9"/>
<path class="st1" d="M31.4,4.7h-3.9C26.7,4.7,26,5.2,25.9,6v2.1c0,0.1,0,0.3,0.1,0.4c0.9-1,2.2-1.7,3.5-1.7C30.8,7,32.1,7.6,33,8.6
	c0-0.1,0.1-0.3,0.1-0.4V6C33,5.2,32.3,4.7,31.4,4.7"/>
<path class="st2" d="M23.1,22.4c-0.5,0.1-0.9,0.1-1.4,0.2c-0.5,0-0.9-0.1-1.4-0.2c-3.2-0.6-5.9-2.9-7.1-6c1.6,1.8,4.8,2.8,8.5,2.8
	c3.6,0,6.8-1,8.5-2.8C29.1,19.5,26.4,21.7,23.1,22.4 M10.5,6.6v2.1c0,0.2,0.1,0.5,0.2,0.7C9.5,9.5,8.3,9.7,7.1,9.9
	c0.8-2.1,2-4,3.4-5.6c0.8-0.8,1.8-1.3,2.9-1.5c2.6-0.4,5.2-0.6,7.8-0.5h1.2c2.6,0,5.2,0.2,7.8,0.5C31.2,3,32.2,3.5,33,4.3
	c1.5,1.7,2.6,3.6,3.4,5.6c-2.7-0.5-5.4-0.8-8.2-0.8c-0.3,0-1.2,0-2.1,0h-0.8c-0.6,0-1.2,0-1.9,0H20c-0.6,0-1.2,0-1.9,0h-0.5
	c0-0.1,0.1-0.2,0.1-0.4V6.6c-0.1-0.8-0.8-1.4-1.6-1.3h-3.9C11.3,5.2,10.6,5.8,10.5,6.6 M34.8,20.4c-1.5-0.2-2.5-1.5-2.4-2.9
	c0.2-1.5,1.5-2.5,2.9-2.4c1.3,0.1,2.3,1.1,2.4,2.4c0.1,1.5-0.9,2.8-2.4,2.9C35.1,20.4,35,20.4,34.8,20.4 M8.2,20.4
	c-1.5-0.2-2.5-1.5-2.4-2.9c0.2-1.5,1.5-2.5,2.9-2.4c1.3,0.1,2.3,1.1,2.4,2.4c0.1,1.5-0.9,2.8-2.4,2.9C8.5,20.4,8.4,20.4,8.2,20.4
	 M43.4,8.4c0-0.6-0.5-1.1-1.2-1.1l-2.5,0.1c-0.6,0-1,0.4-1.1,1c0,0.1,0,0.2-0.1,0.4l-0.3-0.6c-1-2-2.3-3.9-3.8-5.6l0,0
	c-1-1-2.3-1.7-3.7-2h0c-3-0.5-6-0.6-9.1-0.6c-3-0.1-6.1,0.1-9.1,0.6h0c-1.4,0.3-2.7,1-3.7,2l0,0C7.5,4.3,6.2,6.1,5.2,8.1L4.9,8.8
	c0-0.1-0.1-0.3-0.1-0.4c-0.1-0.6-0.5-1-1.1-1L1.2,7.3C0.6,7.2,0.1,7.7,0,8.3l0,1.2c0,0.6,0.5,1.2,1.1,1.2L3.7,11l0-0.1
	c0,0,0,0.1-0.1,0.1c-0.8,0.9-1.3,2-1.6,3.1c-0.3,1.2-0.5,2.5-0.4,3.8c0.1,2.3,0.4,4.6,0.8,6.9v2.3c0,1.1,0.9,2,2,2c0,0,0,0,0,0h2.8
	c1.1,0,2-0.9,2-2v-1.7c2.9-0.3,7.7-0.4,12.4-0.4c4.8,0,9.5,0.1,12.4,0.4v1.7c0,1.1,0.9,2,2,2H39c1.1,0,2-0.9,2-2V25
	c0.4-2.3,0.6-4.6,0.8-6.9c0.1-2.5-0.6-4.9-2-6.9c0,0,0-0.1,0-0.1l2.6-0.3c0.6,0,1.1-0.5,1.1-1.2L43.4,8.4z"/>
<g>
	<path class="st0" d="M199.9,30.1V8.9h2.6v2.1c1.4-1.7,3.6-2.6,5.8-2.5c4.6,0,8.3,3.7,8.2,8.3c0,4.6-3.7,8.3-8.3,8.2
		c-2.2,0.1-4.3-0.8-5.7-2.5v7.5H199.9z M208.2,11c-3.2,0-5.8,2.7-5.8,6c0,3.2,2.6,5.7,5.8,5.8c3.1,0.1,5.7-2.4,5.8-5.6
		c0-0.1,0-0.2,0-0.3c0.1-3.2-2.4-5.8-5.5-5.9C208.3,11,208.2,11,208.2,11L208.2,11z"/>
	<path class="st0" d="M208.2,24.9c-2.4,0.1-4.6-1-5.9-3c0,0,0,0,0,0c0,0,0,0,0,0v8c0,0,0,0,0,0c0,0,0,0,0,0h-2.1c0,0,0,0,0,0v0V9.2
		c0,0,0,0,0,0l0,0h2.1c0,0,0,0,0,0c0,0,0,0,0,0v2.6c1.1-1.6,2.8-2.7,4.7-2.9c4.5-0.6,8.6,2.5,9.3,7c0,0.3,0.1,0.7,0.1,1
		c0,4.4-3.5,8-7.9,8C208.3,24.9,208.2,24.9,208.2,24.9z M206.5,10.9c-2.2,0.5-4,2.3-4.4,4.6c-0.7,4.1,2.1,7.5,6,7.5
		c3.3,0,6-2.6,6-5.9c0-0.1,0-0.1,0-0.2c0.1-3.3-2.5-6.1-5.9-6.2C207.7,10.7,207.1,10.7,206.5,10.9z"/>
	<path class="st0" d="M219,24.8V8.9h2.6v1.5c1-1.2,2.5-2,4.1-1.9l0.3,0v2.5l-0.2,0c-2.8,0.3-4.1,1.7-4.1,4.5v9.2H219z"/>
	<path class="st0" d="M221.3,15.6v8.9h-2.1V9.2h2.1v2.2c0.8-1.7,2.1-2.4,4.3-2.5v2C222.8,11.1,221.3,12.7,221.3,15.6z"/>
	<path class="st0" d="M227.4,24.8V8.9h2.6v15.8H227.4z M227.4,7.8v-4h2.6v4L227.4,7.8z"/>
	<path class="st0" d="M227.7,7.5V4h2.1v3.5H227.7z M227.7,24.5V9.2h2.1v15.3L227.7,24.5z"/>
	<path class="st0" d="M241,25.1c-4.6,0.1-8.5-3.5-8.6-8.1c0-0.1,0-0.1,0-0.2c0.1-4.7,4.1-8.4,8.8-8.2c3.3,0.1,6.2,2.1,7.5,5.2
		l0.1,0.3H246L246,14c-1.6-2.8-5.1-3.8-7.9-2.2c-1.9,1-3,3-3,5.1c0,3.2,2.6,5.8,5.8,5.9c0,0,0.1,0,0.1,0c2.1,0,3.5-0.8,5-2.9
		l0.1-0.1h2.9l-0.2,0.4C246.9,23.5,244.5,25.1,241,25.1z"/>
	<path class="st0" d="M241,24.9c-4.4,0-8-3.6-8-8.1c0-4.4,3.6-8,8.1-8c3.3,0,6.2,2,7.4,5h-2.3c-1.1-1.9-3.1-3.1-5.3-3.1
		c-3.3,0-6.1,2.7-6.1,6c0,0,0,0.1,0,0.1c0,3.4,2.7,6.1,6.1,6.1c0,0,0,0,0.1,0c2.2,0,3.6-0.8,5.2-3h2.4
		C246.7,23.5,244.2,24.9,241,24.9z"/>
	<path class="st0" d="M258.9,25.1c-4.6,0-8.3-3.6-8.3-8.2c0-0.1,0-0.1,0-0.2c0-4.5,3.5-8.2,8-8.2c0.1,0,0.1,0,0.2,0
		c4.9,0,8.2,3.6,8.2,9v0.2h-13.8c0.4,2.8,2.8,4.9,5.7,4.9c2.2,0,4.2-1.3,5.1-3.3l0.1-0.2h2.7l-0.1,0.3
		C265.4,22.8,262.4,25,258.9,25.1z M264.3,15.4c-0.6-2.6-2.9-4.5-5.6-4.4c-2.6,0-4.9,1.8-5.5,4.4H264.3z"/>
	<path class="st0" d="M252.9,17.5c0.3,3.1,2.9,5.5,6,5.4c2.3,0,4.4-1.4,5.3-3.5h2.2c-1.1,3.2-4.1,5.3-7.4,5.4c-4.4,0-8-3.5-8.1-7.9
		c0-0.1,0-0.1,0-0.2c0-4.3,3.4-7.9,7.8-8c0.1,0,0.1,0,0.2,0c4.5,0,8,3.3,8,8.7L252.9,17.5z M258.7,10.7c-2.9,0-5.4,2.1-5.8,4.9h11.7
		C264.2,12.8,261.6,10.7,258.7,10.7L258.7,10.7z"/>
	<path class="st0" d="M285.1,25.1c-4.6,0.1-8.5-3.5-8.6-8.1c0-0.1,0-0.1,0-0.2c0.1-4.7,4.1-8.4,8.8-8.2c3.3,0.1,6.2,2.1,7.5,5.2
		l0.1,0.3h-2.8L290,14c-1-1.9-3-3-5.1-3c-3.2,0.1-5.8,2.7-5.8,6c0.1,3.2,2.7,5.8,5.8,5.8c2.1,0,3.5-0.8,5-2.9l0.1-0.1h2.9l-0.2,0.4
		C291,23.5,288.6,25.1,285.1,25.1z"/>
	<path class="st0" d="M285.1,24.9c-4.4,0-8-3.6-8-8.1c0-4.4,3.6-8,8.1-8c3.3,0,6.2,2,7.4,5h-2.3c-1.1-1.9-3.1-3.1-5.3-3.1
		c-3.3,0-6.1,2.7-6.1,6c0,0,0,0.1,0,0.1c0,3.4,2.7,6.1,6.1,6.1c0,0,0,0,0.1,0c2.2,0,3.6-0.8,5.2-3h2.4
		C290.8,23.5,288.3,24.9,285.1,24.9z"/>
	<path class="st0" d="M306.7,24.8v-8.5c0-3.4-1.6-5.3-4.5-5.3c-2.8,0-4.4,1.9-4.4,5.1v8.7h-2.6V3.6h2.6v6.9c1.2-1.3,2.9-1.9,4.6-1.9
		c4.4,0,6.9,2.7,6.9,7.7v8.5L306.7,24.8z"/>
	<path class="st0" d="M306.9,24.5v-8.2c0-3.8-1.9-5.5-4.7-5.5c-2.7,0-4.7,1.6-4.7,5.4v8.4h-2.1V3.8h2.1v7.4c1.1-1.6,3-2.4,4.9-2.4
		c4,0,6.6,2.3,6.6,7.4v8.2L306.9,24.5z"/>
	<path class="st0" d="M320,25.1c-4.6,0-8.3-3.6-8.3-8.2c0-0.1,0-0.1,0-0.2c0-4.5,3.5-8.2,8-8.2c0.1,0,0.1,0,0.2,0
		c4.9,0,8.2,3.6,8.2,9v0.2h-13.8c0.4,2.8,2.8,4.9,5.7,4.9c2.2,0,4.2-1.3,5.1-3.3l0.1-0.2h2.7l-0.1,0.3C326.6,22.8,323.5,25,320,25.1
		z M325.5,15.4c-0.6-2.6-2.9-4.5-5.6-4.4c-2.7,0-4.9,1.8-5.5,4.4H325.5z"/>
	<path class="st0" d="M314,17.5c0.3,3.1,2.9,5.5,6,5.4c2.3,0,4.4-1.4,5.3-3.5h2.2c-1.1,3.2-4.1,5.3-7.4,5.4c-4.4,0-8-3.5-8.1-7.9
		c0-0.1,0-0.1,0-0.2c0-4.3,3.4-7.9,7.8-8c0.1,0,0.1,0,0.2,0c4.5,0,8,3.3,8,8.7L314,17.5z M319.9,10.7c-2.9,0-5.4,2.1-5.8,4.9h11.7
		C325.3,12.8,322.8,10.7,319.9,10.7L319.9,10.7z"/>
	<path class="st0" d="M338.5,25.1c-4.6,0.1-8.5-3.5-8.6-8.1c0-0.1,0-0.1,0-0.2c0.1-4.7,4.1-8.4,8.8-8.2c3.3,0.1,6.2,2.1,7.5,5.2
		l0.1,0.3h-2.8l-0.1-0.1c-1-1.9-3-3-5.1-3c-3.2,0.1-5.8,2.7-5.8,6c0.1,3.2,2.7,5.8,5.8,5.8c2.1,0,3.5-0.8,5-2.9l0.1-0.1h2.9
		l-0.2,0.4C344.4,23.5,342,25.1,338.5,25.1z"/>
	<path class="st0" d="M338.5,24.9c-4.4,0-8-3.6-8-8.1c0-4.4,3.6-8,8.1-8c3.3,0,6.2,2,7.4,5h-2.3c-1.1-1.9-3.1-3.1-5.3-3.1
		c-3.3,0-6.1,2.7-6.1,6c0,0,0,0.1,0,0.1c0,3.4,2.7,6.1,6.1,6.1c0,0,0,0,0.1,0c2.2,0,3.6-0.8,5.2-3h2.4
		C344.1,23.5,341.7,24.9,338.5,24.9z"/>
	<polygon class="st0" points="358.3,24.8 353.3,18.8 351.2,21.4 351.2,24.8 348.6,24.8 348.6,3.6 351.2,3.6 351.2,17.7 357.9,8.9 
		361.1,8.9 355,16.9 361.5,24.8 	"/>
	<path class="st0" d="M358.4,24.5l-5.1-6.1l-2.4,3v3.2h-2.1V3.8h2.1v14.7l7.1-9.3h2.5l-6,7.7l6.4,7.6L358.4,24.5z"/>
	<path class="st0" d="M369.6,25.1c-4.6,0-8.3-3.6-8.3-8.2c0-0.1,0-0.1,0-0.2c0-4.5,3.5-8.2,8-8.2c0.1,0,0.1,0,0.2,0
		c4.9,0,8.2,3.6,8.2,9v0.2h-13.8c0.4,2.8,2.8,4.9,5.7,4.9c2.2,0,4.2-1.3,5.1-3.3l0.1-0.2h2.7l-0.1,0.3C376.1,22.8,373,25,369.6,25.1
		z M375,15.4c-0.6-2.6-2.9-4.5-5.6-4.4c-2.6,0-4.9,1.8-5.5,4.4H375z"/>
	<path class="st0" d="M363.6,17.5c0.3,3.1,2.9,5.5,6,5.4c2.3,0,4.4-1.4,5.3-3.5h2.2c-1.1,3.2-4.1,5.3-7.4,5.4c-4.4,0-8-3.5-8.1-7.9
		c0-0.1,0-0.1,0-0.2c0-4.3,3.4-7.9,7.8-8c0.1,0,0.1,0,0.2,0c4.5,0,8,3.3,8,8.7L363.6,17.5z M369.4,10.7c-2.9,0-5.4,2.1-5.8,4.9h11.7
		C374.8,12.8,372.3,10.7,369.4,10.7L369.4,10.7z"/>
	<path class="st0" d="M380,24.8V8.9h2.6v1.5c1-1.2,2.5-2,4.1-1.9l0.3,0v2.5l-0.2,0c-2.8,0.3-4.1,1.7-4.1,4.5v9.2H380z"/>
	<path class="st0" d="M382.3,15.6v8.9h-2.1V9.2h2.1v2.2c0.8-1.7,2.1-2.4,4.3-2.5v2C383.8,11.1,382.3,12.7,382.3,15.6z"/>
</g>
<g>
	<path d="M388.8,4.6V3.7h6.3v0.9h-2.6v7h-1v-7H388.8z"/>
	<path d="M397.4,3.7l2.5,6.6l2.5-6.6h1.4v7.9h-1V5.1h0l-2.5,6.5h-0.9L397,5.1h0v6.5h-1V3.7H397.4z"/>
</g>
</svg>
