<svg id="Layer_1" xmlns="http://www.w3.org/2000/svg" viewBox="0 0 1024 1024"><style>.st0{fill:#d00}</style><path class="st0" d="M188.8 354.3s-30.4 42.9 9.4 98.5c0 0 6.3-28.3 69.2-28.3h75.5c71.3 0 124.7-68.1 91.2-138.3 0 0 50.3 5.3 67.1-26.2 16.7-31.4-1.1-44-26.2-44H348.1c0 22.6-42.9 25.7-42.9 0h-71.3s-53.5 0-54.5 45.1c0 0 12.1-7.3 24.1-8.4v12s-14.7 2.6-21.5 6.3c-6.8 3.7-16.7 13.6-7.3 39.3 9.4 25.7 13.1 34.6 13.1 34.6s15.2-13.1 39.8-13.1h28.8c51.3 0 41.9 49.8-9.5 49.8s-58-27.3-58.1-27.3zm267.8-51.9s17.3 1.1 29.9-9.9c0 0 113.7 88.6-55 266.7-168.8 178.1-38.3 293.5-38.3 293.5s-30.4 29.3-13.1 86.4c0 0-70.2-39.6-123.9-106.9-77.6-97.2-125-246 88-364.7.1 0 140.7-70.8 112.4-165.1zM282.8 199.2s22.7-40.5 75.4-40.5c41.6 0 51-21.3 51-21.3s18.1-34.6 109.7-34.6c83.9 0 140.4 27.9 186.2 65.3 0 0-123.3-76.5-244.9 31.1H282.8zm512.8 256.4c-3.5-126.5-101.3-262-311.6-254.3 205.4-174 561.7 214.5 268.3 418.5 0 0 49.1-70 43.3-164.2zM515.5 215.2c256.4-7.7 348 299.7 182.3 438.1l-166.3 80.4s-21.7-69.9 58.7-151.6c80.4-81.7 157.9-234.7-64.3-335.3.1-.1 4.3-21.1-10.4-31.6zm-13.3 69.2s12.6-11.9 16.8-21.7c190.7 79.6 160.7 214.5 46.8 327.7-69.9 72-48.2 149.5-48.2 149.5S432.4 793 403 839.1c0 0-123.4-105.1 47.5-279.5 167.7-171.1 51.7-275.2 51.7-275.2z"/></svg>